<?xml version="1.0" encoding="utf-8" standalone="no"?>
<!DOCTYPE svg PUBLIC "-//W3C//DTD SVG 1.1//EN"
  "http://www.w3.org/Graphics/SVG/1.1/DTD/svg11.dtd">
<svg xmlns:xlink="http://www.w3.org/1999/xlink" width="460.8pt" height="345.6pt" viewBox="0 0 460.8 345.6" xmlns="http://www.w3.org/2000/svg" version="1.1">
 <metadata>
  <rdf:RDF xmlns:dc="http://purl.org/dc/elements/1.1/" xmlns:cc="http://creativecommons.org/ns#" xmlns:rdf="http://www.w3.org/1999/02/22-rdf-syntax-ns#">
   <cc:Work>
    <dc:type rdf:resource="http://purl.org/dc/dcmitype/StillImage"/>
    <dc:date>2023-05-10T10:12:22.833205</dc:date>
    <dc:format>image/svg+xml</dc:format>
    <dc:creator>
     <cc:Agent>
      <dc:title>Matplotlib v3.7.1, https://matplotlib.org/</dc:title>
     </cc:Agent>
    </dc:creator>
   </cc:Work>
  </rdf:RDF>
 </metadata>
 <defs>
  <style type="text/css">*{stroke-linejoin: round; stroke-linecap: butt}</style>
 </defs>
 <g id="figure_1">
  <g id="patch_1">
   <path d="M 0 345.6 
L 460.8 345.6 
L 460.8 0 
L 0 0 
z
" style="fill: #ffffff"/>
  </g>
  <g id="axes_1">
   <g id="patch_2">
    <path d="M 57.6 307.584 
L 414.72 307.584 
L 414.72 41.472 
L 57.6 41.472 
z
" style="fill: #ffffff"/>
   </g>
   <g id="matplotlib.axis_1">
    <g id="xtick_1">
     <g id="line2d_1">
      <defs>
       <path id="m442c6024a4" d="M 0 0 
L 0 3.5 
" style="stroke: #000000; stroke-width: 0.8"/>
      </defs>
      <g>
       <use xlink:href="#m442c6024a4" x="66.06561" y="307.584" style="stroke: #000000; stroke-width: 0.8"/>
      </g>
     </g>
     <g id="text_1">
      <!-- 0 -->
      <g transform="translate(62.88436 322.182437) scale(0.1 -0.1)">
       <defs>
        <path id="DejaVuSans-30" d="M 2034 4250 
Q 1547 4250 1301 3770 
Q 1056 3291 1056 2328 
Q 1056 1369 1301 889 
Q 1547 409 2034 409 
Q 2525 409 2770 889 
Q 3016 1369 3016 2328 
Q 3016 3291 2770 3770 
Q 2525 4250 2034 4250 
z
M 2034 4750 
Q 2819 4750 3233 4129 
Q 3647 3509 3647 2328 
Q 3647 1150 3233 529 
Q 2819 -91 2034 -91 
Q 1250 -91 836 529 
Q 422 1150 422 2328 
Q 422 3509 836 4129 
Q 1250 4750 2034 4750 
z
" transform="scale(0.015625)"/>
       </defs>
       <use xlink:href="#DejaVuSans-30"/>
      </g>
     </g>
    </g>
    <g id="xtick_2">
     <g id="line2d_2">
      <g>
       <use xlink:href="#m442c6024a4" x="124.646604" y="307.584" style="stroke: #000000; stroke-width: 0.8"/>
      </g>
     </g>
     <g id="text_2">
      <!-- 1 -->
      <g transform="translate(121.465354 322.182437) scale(0.1 -0.1)">
       <defs>
        <path id="DejaVuSans-31" d="M 794 531 
L 1825 531 
L 1825 4091 
L 703 3866 
L 703 4441 
L 1819 4666 
L 2450 4666 
L 2450 531 
L 3481 531 
L 3481 0 
L 794 0 
L 794 531 
z
" transform="scale(0.015625)"/>
       </defs>
       <use xlink:href="#DejaVuSans-31"/>
      </g>
     </g>
    </g>
    <g id="xtick_3">
     <g id="line2d_3">
      <g>
       <use xlink:href="#m442c6024a4" x="183.227598" y="307.584" style="stroke: #000000; stroke-width: 0.8"/>
      </g>
     </g>
     <g id="text_3">
      <!-- 2 -->
      <g transform="translate(180.046348 322.182437) scale(0.1 -0.1)">
       <defs>
        <path id="DejaVuSans-32" d="M 1228 531 
L 3431 531 
L 3431 0 
L 469 0 
L 469 531 
Q 828 903 1448 1529 
Q 2069 2156 2228 2338 
Q 2531 2678 2651 2914 
Q 2772 3150 2772 3378 
Q 2772 3750 2511 3984 
Q 2250 4219 1831 4219 
Q 1534 4219 1204 4116 
Q 875 4013 500 3803 
L 500 4441 
Q 881 4594 1212 4672 
Q 1544 4750 1819 4750 
Q 2544 4750 2975 4387 
Q 3406 4025 3406 3419 
Q 3406 3131 3298 2873 
Q 3191 2616 2906 2266 
Q 2828 2175 2409 1742 
Q 1991 1309 1228 531 
z
" transform="scale(0.015625)"/>
       </defs>
       <use xlink:href="#DejaVuSans-32"/>
      </g>
     </g>
    </g>
    <g id="xtick_4">
     <g id="line2d_4">
      <g>
       <use xlink:href="#m442c6024a4" x="241.808592" y="307.584" style="stroke: #000000; stroke-width: 0.8"/>
      </g>
     </g>
     <g id="text_4">
      <!-- 3 -->
      <g transform="translate(238.627342 322.182437) scale(0.1 -0.1)">
       <defs>
        <path id="DejaVuSans-33" d="M 2597 2516 
Q 3050 2419 3304 2112 
Q 3559 1806 3559 1356 
Q 3559 666 3084 287 
Q 2609 -91 1734 -91 
Q 1441 -91 1130 -33 
Q 819 25 488 141 
L 488 750 
Q 750 597 1062 519 
Q 1375 441 1716 441 
Q 2309 441 2620 675 
Q 2931 909 2931 1356 
Q 2931 1769 2642 2001 
Q 2353 2234 1838 2234 
L 1294 2234 
L 1294 2753 
L 1863 2753 
Q 2328 2753 2575 2939 
Q 2822 3125 2822 3475 
Q 2822 3834 2567 4026 
Q 2313 4219 1838 4219 
Q 1578 4219 1281 4162 
Q 984 4106 628 3988 
L 628 4550 
Q 988 4650 1302 4700 
Q 1616 4750 1894 4750 
Q 2613 4750 3031 4423 
Q 3450 4097 3450 3541 
Q 3450 3153 3228 2886 
Q 3006 2619 2597 2516 
z
" transform="scale(0.015625)"/>
       </defs>
       <use xlink:href="#DejaVuSans-33"/>
      </g>
     </g>
    </g>
    <g id="xtick_5">
     <g id="line2d_5">
      <g>
       <use xlink:href="#m442c6024a4" x="300.389586" y="307.584" style="stroke: #000000; stroke-width: 0.8"/>
      </g>
     </g>
     <g id="text_5">
      <!-- 4 -->
      <g transform="translate(297.208336 322.182437) scale(0.1 -0.1)">
       <defs>
        <path id="DejaVuSans-34" d="M 2419 4116 
L 825 1625 
L 2419 1625 
L 2419 4116 
z
M 2253 4666 
L 3047 4666 
L 3047 1625 
L 3713 1625 
L 3713 1100 
L 3047 1100 
L 3047 0 
L 2419 0 
L 2419 1100 
L 313 1100 
L 313 1709 
L 2253 4666 
z
" transform="scale(0.015625)"/>
       </defs>
       <use xlink:href="#DejaVuSans-34"/>
      </g>
     </g>
    </g>
    <g id="xtick_6">
     <g id="line2d_6">
      <g>
       <use xlink:href="#m442c6024a4" x="358.97058" y="307.584" style="stroke: #000000; stroke-width: 0.8"/>
      </g>
     </g>
     <g id="text_6">
      <!-- 5 -->
      <g transform="translate(355.78933 322.182437) scale(0.1 -0.1)">
       <defs>
        <path id="DejaVuSans-35" d="M 691 4666 
L 3169 4666 
L 3169 4134 
L 1269 4134 
L 1269 2991 
Q 1406 3038 1543 3061 
Q 1681 3084 1819 3084 
Q 2600 3084 3056 2656 
Q 3513 2228 3513 1497 
Q 3513 744 3044 326 
Q 2575 -91 1722 -91 
Q 1428 -91 1123 -41 
Q 819 9 494 109 
L 494 744 
Q 775 591 1075 516 
Q 1375 441 1709 441 
Q 2250 441 2565 725 
Q 2881 1009 2881 1497 
Q 2881 1984 2565 2268 
Q 2250 2553 1709 2553 
Q 1456 2553 1204 2497 
Q 953 2441 691 2322 
L 691 4666 
z
" transform="scale(0.015625)"/>
       </defs>
       <use xlink:href="#DejaVuSans-35"/>
      </g>
     </g>
    </g>
    <g id="text_7">
     <!-- time (s) -->
     <g transform="translate(216.768594 335.860562) scale(0.1 -0.1)">
      <defs>
       <path id="DejaVuSans-74" d="M 1172 4494 
L 1172 3500 
L 2356 3500 
L 2356 3053 
L 1172 3053 
L 1172 1153 
Q 1172 725 1289 603 
Q 1406 481 1766 481 
L 2356 481 
L 2356 0 
L 1766 0 
Q 1100 0 847 248 
Q 594 497 594 1153 
L 594 3053 
L 172 3053 
L 172 3500 
L 594 3500 
L 594 4494 
L 1172 4494 
z
" transform="scale(0.015625)"/>
       <path id="DejaVuSans-69" d="M 603 3500 
L 1178 3500 
L 1178 0 
L 603 0 
L 603 3500 
z
M 603 4863 
L 1178 4863 
L 1178 4134 
L 603 4134 
L 603 4863 
z
" transform="scale(0.015625)"/>
       <path id="DejaVuSans-6d" d="M 3328 2828 
Q 3544 3216 3844 3400 
Q 4144 3584 4550 3584 
Q 5097 3584 5394 3201 
Q 5691 2819 5691 2113 
L 5691 0 
L 5113 0 
L 5113 2094 
Q 5113 2597 4934 2840 
Q 4756 3084 4391 3084 
Q 3944 3084 3684 2787 
Q 3425 2491 3425 1978 
L 3425 0 
L 2847 0 
L 2847 2094 
Q 2847 2600 2669 2842 
Q 2491 3084 2119 3084 
Q 1678 3084 1418 2786 
Q 1159 2488 1159 1978 
L 1159 0 
L 581 0 
L 581 3500 
L 1159 3500 
L 1159 2956 
Q 1356 3278 1631 3431 
Q 1906 3584 2284 3584 
Q 2666 3584 2933 3390 
Q 3200 3197 3328 2828 
z
" transform="scale(0.015625)"/>
       <path id="DejaVuSans-65" d="M 3597 1894 
L 3597 1613 
L 953 1613 
Q 991 1019 1311 708 
Q 1631 397 2203 397 
Q 2534 397 2845 478 
Q 3156 559 3463 722 
L 3463 178 
Q 3153 47 2828 -22 
Q 2503 -91 2169 -91 
Q 1331 -91 842 396 
Q 353 884 353 1716 
Q 353 2575 817 3079 
Q 1281 3584 2069 3584 
Q 2775 3584 3186 3129 
Q 3597 2675 3597 1894 
z
M 3022 2063 
Q 3016 2534 2758 2815 
Q 2500 3097 2075 3097 
Q 1594 3097 1305 2825 
Q 1016 2553 972 2059 
L 3022 2063 
z
" transform="scale(0.015625)"/>
       <path id="DejaVuSans-20" transform="scale(0.015625)"/>
       <path id="DejaVuSans-28" d="M 1984 4856 
Q 1566 4138 1362 3434 
Q 1159 2731 1159 2009 
Q 1159 1288 1364 580 
Q 1569 -128 1984 -844 
L 1484 -844 
Q 1016 -109 783 600 
Q 550 1309 550 2009 
Q 550 2706 781 3412 
Q 1013 4119 1484 4856 
L 1984 4856 
z
" transform="scale(0.015625)"/>
       <path id="DejaVuSans-73" d="M 2834 3397 
L 2834 2853 
Q 2591 2978 2328 3040 
Q 2066 3103 1784 3103 
Q 1356 3103 1142 2972 
Q 928 2841 928 2578 
Q 928 2378 1081 2264 
Q 1234 2150 1697 2047 
L 1894 2003 
Q 2506 1872 2764 1633 
Q 3022 1394 3022 966 
Q 3022 478 2636 193 
Q 2250 -91 1575 -91 
Q 1294 -91 989 -36 
Q 684 19 347 128 
L 347 722 
Q 666 556 975 473 
Q 1284 391 1588 391 
Q 1994 391 2212 530 
Q 2431 669 2431 922 
Q 2431 1156 2273 1281 
Q 2116 1406 1581 1522 
L 1381 1569 
Q 847 1681 609 1914 
Q 372 2147 372 2553 
Q 372 3047 722 3315 
Q 1072 3584 1716 3584 
Q 2034 3584 2315 3537 
Q 2597 3491 2834 3397 
z
" transform="scale(0.015625)"/>
       <path id="DejaVuSans-29" d="M 513 4856 
L 1013 4856 
Q 1481 4119 1714 3412 
Q 1947 2706 1947 2009 
Q 1947 1309 1714 600 
Q 1481 -109 1013 -844 
L 513 -844 
Q 928 -128 1133 580 
Q 1338 1288 1338 2009 
Q 1338 2731 1133 3434 
Q 928 4138 513 4856 
z
" transform="scale(0.015625)"/>
      </defs>
      <use xlink:href="#DejaVuSans-74"/>
      <use xlink:href="#DejaVuSans-69" x="39.208984"/>
      <use xlink:href="#DejaVuSans-6d" x="66.992188"/>
      <use xlink:href="#DejaVuSans-65" x="164.404297"/>
      <use xlink:href="#DejaVuSans-20" x="225.927734"/>
      <use xlink:href="#DejaVuSans-28" x="257.714844"/>
      <use xlink:href="#DejaVuSans-73" x="296.728516"/>
      <use xlink:href="#DejaVuSans-29" x="348.828125"/>
     </g>
    </g>
   </g>
   <g id="matplotlib.axis_2">
    <g id="ytick_1">
     <g id="line2d_7">
      <defs>
       <path id="mbd1e838b74" d="M 0 0 
L -3.5 0 
" style="stroke: #000000; stroke-width: 0.8"/>
      </defs>
      <g>
       <use xlink:href="#mbd1e838b74" x="57.6" y="306.576" style="stroke: #000000; stroke-width: 0.8"/>
      </g>
     </g>
     <g id="text_8">
      <!-- 0 -->
      <g transform="translate(44.2375 310.375219) scale(0.1 -0.1)">
       <use xlink:href="#DejaVuSans-30"/>
      </g>
     </g>
    </g>
    <g id="ytick_2">
     <g id="line2d_8">
      <g>
       <use xlink:href="#mbd1e838b74" x="57.6" y="256.176" style="stroke: #000000; stroke-width: 0.8"/>
      </g>
     </g>
     <g id="text_9">
      <!-- 50 -->
      <g transform="translate(37.875 259.975219) scale(0.1 -0.1)">
       <use xlink:href="#DejaVuSans-35"/>
       <use xlink:href="#DejaVuSans-30" x="63.623047"/>
      </g>
     </g>
    </g>
    <g id="ytick_3">
     <g id="line2d_9">
      <g>
       <use xlink:href="#mbd1e838b74" x="57.6" y="205.776" style="stroke: #000000; stroke-width: 0.8"/>
      </g>
     </g>
     <g id="text_10">
      <!-- 100 -->
      <g transform="translate(31.5125 209.575219) scale(0.1 -0.1)">
       <use xlink:href="#DejaVuSans-31"/>
       <use xlink:href="#DejaVuSans-30" x="63.623047"/>
       <use xlink:href="#DejaVuSans-30" x="127.246094"/>
      </g>
     </g>
    </g>
    <g id="ytick_4">
     <g id="line2d_10">
      <g>
       <use xlink:href="#mbd1e838b74" x="57.6" y="155.376" style="stroke: #000000; stroke-width: 0.8"/>
      </g>
     </g>
     <g id="text_11">
      <!-- 150 -->
      <g transform="translate(31.5125 159.175219) scale(0.1 -0.1)">
       <use xlink:href="#DejaVuSans-31"/>
       <use xlink:href="#DejaVuSans-35" x="63.623047"/>
       <use xlink:href="#DejaVuSans-30" x="127.246094"/>
      </g>
     </g>
    </g>
    <g id="ytick_5">
     <g id="line2d_11">
      <g>
       <use xlink:href="#mbd1e838b74" x="57.6" y="104.976" style="stroke: #000000; stroke-width: 0.8"/>
      </g>
     </g>
     <g id="text_12">
      <!-- 200 -->
      <g transform="translate(31.5125 108.775219) scale(0.1 -0.1)">
       <use xlink:href="#DejaVuSans-32"/>
       <use xlink:href="#DejaVuSans-30" x="63.623047"/>
       <use xlink:href="#DejaVuSans-30" x="127.246094"/>
      </g>
     </g>
    </g>
    <g id="ytick_6">
     <g id="line2d_12">
      <g>
       <use xlink:href="#mbd1e838b74" x="57.6" y="54.576" style="stroke: #000000; stroke-width: 0.8"/>
      </g>
     </g>
     <g id="text_13">
      <!-- 250 -->
      <g transform="translate(31.5125 58.375219) scale(0.1 -0.1)">
       <use xlink:href="#DejaVuSans-32"/>
       <use xlink:href="#DejaVuSans-35" x="63.623047"/>
       <use xlink:href="#DejaVuSans-30" x="127.246094"/>
      </g>
     </g>
    </g>
    <g id="text_14">
     <!-- distance (cm) -->
     <g transform="translate(25.432812 208.824875) rotate(-90) scale(0.1 -0.1)">
      <defs>
       <path id="DejaVuSans-64" d="M 2906 2969 
L 2906 4863 
L 3481 4863 
L 3481 0 
L 2906 0 
L 2906 525 
Q 2725 213 2448 61 
Q 2172 -91 1784 -91 
Q 1150 -91 751 415 
Q 353 922 353 1747 
Q 353 2572 751 3078 
Q 1150 3584 1784 3584 
Q 2172 3584 2448 3432 
Q 2725 3281 2906 2969 
z
M 947 1747 
Q 947 1113 1208 752 
Q 1469 391 1925 391 
Q 2381 391 2643 752 
Q 2906 1113 2906 1747 
Q 2906 2381 2643 2742 
Q 2381 3103 1925 3103 
Q 1469 3103 1208 2742 
Q 947 2381 947 1747 
z
" transform="scale(0.015625)"/>
       <path id="DejaVuSans-61" d="M 2194 1759 
Q 1497 1759 1228 1600 
Q 959 1441 959 1056 
Q 959 750 1161 570 
Q 1363 391 1709 391 
Q 2188 391 2477 730 
Q 2766 1069 2766 1631 
L 2766 1759 
L 2194 1759 
z
M 3341 1997 
L 3341 0 
L 2766 0 
L 2766 531 
Q 2569 213 2275 61 
Q 1981 -91 1556 -91 
Q 1019 -91 701 211 
Q 384 513 384 1019 
Q 384 1609 779 1909 
Q 1175 2209 1959 2209 
L 2766 2209 
L 2766 2266 
Q 2766 2663 2505 2880 
Q 2244 3097 1772 3097 
Q 1472 3097 1187 3025 
Q 903 2953 641 2809 
L 641 3341 
Q 956 3463 1253 3523 
Q 1550 3584 1831 3584 
Q 2591 3584 2966 3190 
Q 3341 2797 3341 1997 
z
" transform="scale(0.015625)"/>
       <path id="DejaVuSans-6e" d="M 3513 2113 
L 3513 0 
L 2938 0 
L 2938 2094 
Q 2938 2591 2744 2837 
Q 2550 3084 2163 3084 
Q 1697 3084 1428 2787 
Q 1159 2491 1159 1978 
L 1159 0 
L 581 0 
L 581 3500 
L 1159 3500 
L 1159 2956 
Q 1366 3272 1645 3428 
Q 1925 3584 2291 3584 
Q 2894 3584 3203 3211 
Q 3513 2838 3513 2113 
z
" transform="scale(0.015625)"/>
       <path id="DejaVuSans-63" d="M 3122 3366 
L 3122 2828 
Q 2878 2963 2633 3030 
Q 2388 3097 2138 3097 
Q 1578 3097 1268 2742 
Q 959 2388 959 1747 
Q 959 1106 1268 751 
Q 1578 397 2138 397 
Q 2388 397 2633 464 
Q 2878 531 3122 666 
L 3122 134 
Q 2881 22 2623 -34 
Q 2366 -91 2075 -91 
Q 1284 -91 818 406 
Q 353 903 353 1747 
Q 353 2603 823 3093 
Q 1294 3584 2113 3584 
Q 2378 3584 2631 3529 
Q 2884 3475 3122 3366 
z
" transform="scale(0.015625)"/>
      </defs>
      <use xlink:href="#DejaVuSans-64"/>
      <use xlink:href="#DejaVuSans-69" x="63.476562"/>
      <use xlink:href="#DejaVuSans-73" x="91.259766"/>
      <use xlink:href="#DejaVuSans-74" x="143.359375"/>
      <use xlink:href="#DejaVuSans-61" x="182.568359"/>
      <use xlink:href="#DejaVuSans-6e" x="243.847656"/>
      <use xlink:href="#DejaVuSans-63" x="307.226562"/>
      <use xlink:href="#DejaVuSans-65" x="362.207031"/>
      <use xlink:href="#DejaVuSans-20" x="423.730469"/>
      <use xlink:href="#DejaVuSans-28" x="455.517578"/>
      <use xlink:href="#DejaVuSans-63" x="494.53125"/>
      <use xlink:href="#DejaVuSans-6d" x="549.511719"/>
      <use xlink:href="#DejaVuSans-29" x="646.923828"/>
     </g>
    </g>
   </g>
   <g id="line2d_13">
    <path d="M 73.832727 54.576 
L 82.157203 54.576 
L 90.481678 54.576 
L 98.806154 55.584 
L 107.130629 55.584 
L 115.455105 58.608 
L 123.77958 62.64 
L 132.104056 68.688 
L 140.428531 68.688 
L 148.753007 75.744 
L 157.077483 83.808 
L 165.401958 83.808 
L 173.726434 92.88 
L 182.050909 104.976 
L 190.375385 116.064 
L 198.69986 116.064 
L 207.024336 127.152 
L 215.348811 139.248 
L 223.673287 139.248 
L 231.997762 152.352 
L 240.322238 164.448 
L 248.646713 178.56 
L 256.971189 178.56 
L 265.295664 192.672 
L 273.62014 206.784 
L 281.944615 206.784 
L 290.269091 221.904 
L 298.593566 237.024 
L 306.918042 253.152 
L 315.242517 253.152 
L 323.566993 268.272 
L 331.891469 284.4 
L 340.215944 284.4 
L 348.54042 293.472 
L 356.864895 294.48 
L 365.189371 294.48 
L 373.513846 294.48 
L 381.838322 293.472 
L 390.162797 294.48 
L 398.487273 294.48 
" clip-path="url(#p5da84c405a)" style="fill: none; stroke: #0000ff; stroke-width: 1.5; stroke-linecap: square"/>
    <defs>
     <path id="m4acd757b0b" d="M 0 1.5 
C 0.397805 1.5 0.77937 1.341951 1.06066 1.06066 
C 1.341951 0.77937 1.5 0.397805 1.5 0 
C 1.5 -0.397805 1.341951 -0.77937 1.06066 -1.06066 
C 0.77937 -1.341951 0.397805 -1.5 0 -1.5 
C -0.397805 -1.5 -0.77937 -1.341951 -1.06066 -1.06066 
C -1.341951 -0.77937 -1.5 -0.397805 -1.5 0 
C -1.5 0.397805 -1.341951 0.77937 -1.06066 1.06066 
C -0.77937 1.341951 -0.397805 1.5 0 1.5 
z
" style="stroke: #0000ff"/>
    </defs>
    <g clip-path="url(#p5da84c405a)">
     <use xlink:href="#m4acd757b0b" x="73.832727" y="54.576" style="fill: #0000ff; stroke: #0000ff"/>
     <use xlink:href="#m4acd757b0b" x="82.157203" y="54.576" style="fill: #0000ff; stroke: #0000ff"/>
     <use xlink:href="#m4acd757b0b" x="90.481678" y="54.576" style="fill: #0000ff; stroke: #0000ff"/>
     <use xlink:href="#m4acd757b0b" x="98.806154" y="55.584" style="fill: #0000ff; stroke: #0000ff"/>
     <use xlink:href="#m4acd757b0b" x="107.130629" y="55.584" style="fill: #0000ff; stroke: #0000ff"/>
     <use xlink:href="#m4acd757b0b" x="115.455105" y="58.608" style="fill: #0000ff; stroke: #0000ff"/>
     <use xlink:href="#m4acd757b0b" x="123.77958" y="62.64" style="fill: #0000ff; stroke: #0000ff"/>
     <use xlink:href="#m4acd757b0b" x="132.104056" y="68.688" style="fill: #0000ff; stroke: #0000ff"/>
     <use xlink:href="#m4acd757b0b" x="140.428531" y="68.688" style="fill: #0000ff; stroke: #0000ff"/>
     <use xlink:href="#m4acd757b0b" x="148.753007" y="75.744" style="fill: #0000ff; stroke: #0000ff"/>
     <use xlink:href="#m4acd757b0b" x="157.077483" y="83.808" style="fill: #0000ff; stroke: #0000ff"/>
     <use xlink:href="#m4acd757b0b" x="165.401958" y="83.808" style="fill: #0000ff; stroke: #0000ff"/>
     <use xlink:href="#m4acd757b0b" x="173.726434" y="92.88" style="fill: #0000ff; stroke: #0000ff"/>
     <use xlink:href="#m4acd757b0b" x="182.050909" y="104.976" style="fill: #0000ff; stroke: #0000ff"/>
     <use xlink:href="#m4acd757b0b" x="190.375385" y="116.064" style="fill: #0000ff; stroke: #0000ff"/>
     <use xlink:href="#m4acd757b0b" x="198.69986" y="116.064" style="fill: #0000ff; stroke: #0000ff"/>
     <use xlink:href="#m4acd757b0b" x="207.024336" y="127.152" style="fill: #0000ff; stroke: #0000ff"/>
     <use xlink:href="#m4acd757b0b" x="215.348811" y="139.248" style="fill: #0000ff; stroke: #0000ff"/>
     <use xlink:href="#m4acd757b0b" x="223.673287" y="139.248" style="fill: #0000ff; stroke: #0000ff"/>
     <use xlink:href="#m4acd757b0b" x="231.997762" y="152.352" style="fill: #0000ff; stroke: #0000ff"/>
     <use xlink:href="#m4acd757b0b" x="240.322238" y="164.448" style="fill: #0000ff; stroke: #0000ff"/>
     <use xlink:href="#m4acd757b0b" x="248.646713" y="178.56" style="fill: #0000ff; stroke: #0000ff"/>
     <use xlink:href="#m4acd757b0b" x="256.971189" y="178.56" style="fill: #0000ff; stroke: #0000ff"/>
     <use xlink:href="#m4acd757b0b" x="265.295664" y="192.672" style="fill: #0000ff; stroke: #0000ff"/>
     <use xlink:href="#m4acd757b0b" x="273.62014" y="206.784" style="fill: #0000ff; stroke: #0000ff"/>
     <use xlink:href="#m4acd757b0b" x="281.944615" y="206.784" style="fill: #0000ff; stroke: #0000ff"/>
     <use xlink:href="#m4acd757b0b" x="290.269091" y="221.904" style="fill: #0000ff; stroke: #0000ff"/>
     <use xlink:href="#m4acd757b0b" x="298.593566" y="237.024" style="fill: #0000ff; stroke: #0000ff"/>
     <use xlink:href="#m4acd757b0b" x="306.918042" y="253.152" style="fill: #0000ff; stroke: #0000ff"/>
     <use xlink:href="#m4acd757b0b" x="315.242517" y="253.152" style="fill: #0000ff; stroke: #0000ff"/>
     <use xlink:href="#m4acd757b0b" x="323.566993" y="268.272" style="fill: #0000ff; stroke: #0000ff"/>
     <use xlink:href="#m4acd757b0b" x="331.891469" y="284.4" style="fill: #0000ff; stroke: #0000ff"/>
     <use xlink:href="#m4acd757b0b" x="340.215944" y="284.4" style="fill: #0000ff; stroke: #0000ff"/>
     <use xlink:href="#m4acd757b0b" x="348.54042" y="293.472" style="fill: #0000ff; stroke: #0000ff"/>
     <use xlink:href="#m4acd757b0b" x="356.864895" y="294.48" style="fill: #0000ff; stroke: #0000ff"/>
     <use xlink:href="#m4acd757b0b" x="365.189371" y="294.48" style="fill: #0000ff; stroke: #0000ff"/>
     <use xlink:href="#m4acd757b0b" x="373.513846" y="294.48" style="fill: #0000ff; stroke: #0000ff"/>
     <use xlink:href="#m4acd757b0b" x="381.838322" y="293.472" style="fill: #0000ff; stroke: #0000ff"/>
     <use xlink:href="#m4acd757b0b" x="390.162797" y="294.48" style="fill: #0000ff; stroke: #0000ff"/>
     <use xlink:href="#m4acd757b0b" x="398.487273" y="294.48" style="fill: #0000ff; stroke: #0000ff"/>
    </g>
   </g>
   <g id="line2d_14">
    <path d="M 73.832727 53.568 
L 82.157203 53.568 
L 90.481678 53.568 
L 98.806154 54.576 
L 107.130629 56.592 
L 115.455105 59.616 
L 123.77958 59.616 
L 132.104056 65.664 
L 140.428531 72.72 
L 148.753007 72.72 
L 157.077483 79.776 
L 165.401958 88.848 
L 173.726434 98.928 
L 182.050909 98.928 
L 190.375385 109.008 
L 198.69986 120.096 
L 207.024336 120.096 
L 215.348811 132.192 
L 223.673287 145.296 
L 231.997762 157.392 
L 240.322238 157.392 
L 248.646713 171.504 
L 256.971189 184.608 
L 265.295664 198.72 
L 273.62014 198.72 
L 281.944615 212.832 
L 290.269091 227.952 
L 298.593566 227.952 
L 306.918042 244.08 
L 315.242517 259.2 
L 323.566993 276.336 
L 331.891469 276.336 
L 340.215944 290.448 
L 348.54042 294.48 
L 356.864895 294.48 
L 365.189371 294.48 
L 373.513846 294.48 
L 381.838322 295.488 
L 390.162797 295.488 
L 398.487273 294.48 
" clip-path="url(#p5da84c405a)" style="fill: none; stroke: #ff0000; stroke-width: 1.5; stroke-linecap: square"/>
    <defs>
     <path id="m63e0e8e0f4" d="M 0 1.5 
C 0.397805 1.5 0.77937 1.341951 1.06066 1.06066 
C 1.341951 0.77937 1.5 0.397805 1.5 0 
C 1.5 -0.397805 1.341951 -0.77937 1.06066 -1.06066 
C 0.77937 -1.341951 0.397805 -1.5 0 -1.5 
C -0.397805 -1.5 -0.77937 -1.341951 -1.06066 -1.06066 
C -1.341951 -0.77937 -1.5 -0.397805 -1.5 0 
C -1.5 0.397805 -1.341951 0.77937 -1.06066 1.06066 
C -0.77937 1.341951 -0.397805 1.5 0 1.5 
z
" style="stroke: #ff0000"/>
    </defs>
    <g clip-path="url(#p5da84c405a)">
     <use xlink:href="#m63e0e8e0f4" x="73.832727" y="53.568" style="fill: #ff0000; stroke: #ff0000"/>
     <use xlink:href="#m63e0e8e0f4" x="82.157203" y="53.568" style="fill: #ff0000; stroke: #ff0000"/>
     <use xlink:href="#m63e0e8e0f4" x="90.481678" y="53.568" style="fill: #ff0000; stroke: #ff0000"/>
     <use xlink:href="#m63e0e8e0f4" x="98.806154" y="54.576" style="fill: #ff0000; stroke: #ff0000"/>
     <use xlink:href="#m63e0e8e0f4" x="107.130629" y="56.592" style="fill: #ff0000; stroke: #ff0000"/>
     <use xlink:href="#m63e0e8e0f4" x="115.455105" y="59.616" style="fill: #ff0000; stroke: #ff0000"/>
     <use xlink:href="#m63e0e8e0f4" x="123.77958" y="59.616" style="fill: #ff0000; stroke: #ff0000"/>
     <use xlink:href="#m63e0e8e0f4" x="132.104056" y="65.664" style="fill: #ff0000; stroke: #ff0000"/>
     <use xlink:href="#m63e0e8e0f4" x="140.428531" y="72.72" style="fill: #ff0000; stroke: #ff0000"/>
     <use xlink:href="#m63e0e8e0f4" x="148.753007" y="72.72" style="fill: #ff0000; stroke: #ff0000"/>
     <use xlink:href="#m63e0e8e0f4" x="157.077483" y="79.776" style="fill: #ff0000; stroke: #ff0000"/>
     <use xlink:href="#m63e0e8e0f4" x="165.401958" y="88.848" style="fill: #ff0000; stroke: #ff0000"/>
     <use xlink:href="#m63e0e8e0f4" x="173.726434" y="98.928" style="fill: #ff0000; stroke: #ff0000"/>
     <use xlink:href="#m63e0e8e0f4" x="182.050909" y="98.928" style="fill: #ff0000; stroke: #ff0000"/>
     <use xlink:href="#m63e0e8e0f4" x="190.375385" y="109.008" style="fill: #ff0000; stroke: #ff0000"/>
     <use xlink:href="#m63e0e8e0f4" x="198.69986" y="120.096" style="fill: #ff0000; stroke: #ff0000"/>
     <use xlink:href="#m63e0e8e0f4" x="207.024336" y="120.096" style="fill: #ff0000; stroke: #ff0000"/>
     <use xlink:href="#m63e0e8e0f4" x="215.348811" y="132.192" style="fill: #ff0000; stroke: #ff0000"/>
     <use xlink:href="#m63e0e8e0f4" x="223.673287" y="145.296" style="fill: #ff0000; stroke: #ff0000"/>
     <use xlink:href="#m63e0e8e0f4" x="231.997762" y="157.392" style="fill: #ff0000; stroke: #ff0000"/>
     <use xlink:href="#m63e0e8e0f4" x="240.322238" y="157.392" style="fill: #ff0000; stroke: #ff0000"/>
     <use xlink:href="#m63e0e8e0f4" x="248.646713" y="171.504" style="fill: #ff0000; stroke: #ff0000"/>
     <use xlink:href="#m63e0e8e0f4" x="256.971189" y="184.608" style="fill: #ff0000; stroke: #ff0000"/>
     <use xlink:href="#m63e0e8e0f4" x="265.295664" y="198.72" style="fill: #ff0000; stroke: #ff0000"/>
     <use xlink:href="#m63e0e8e0f4" x="273.62014" y="198.72" style="fill: #ff0000; stroke: #ff0000"/>
     <use xlink:href="#m63e0e8e0f4" x="281.944615" y="212.832" style="fill: #ff0000; stroke: #ff0000"/>
     <use xlink:href="#m63e0e8e0f4" x="290.269091" y="227.952" style="fill: #ff0000; stroke: #ff0000"/>
     <use xlink:href="#m63e0e8e0f4" x="298.593566" y="227.952" style="fill: #ff0000; stroke: #ff0000"/>
     <use xlink:href="#m63e0e8e0f4" x="306.918042" y="244.08" style="fill: #ff0000; stroke: #ff0000"/>
     <use xlink:href="#m63e0e8e0f4" x="315.242517" y="259.2" style="fill: #ff0000; stroke: #ff0000"/>
     <use xlink:href="#m63e0e8e0f4" x="323.566993" y="276.336" style="fill: #ff0000; stroke: #ff0000"/>
     <use xlink:href="#m63e0e8e0f4" x="331.891469" y="276.336" style="fill: #ff0000; stroke: #ff0000"/>
     <use xlink:href="#m63e0e8e0f4" x="340.215944" y="290.448" style="fill: #ff0000; stroke: #ff0000"/>
     <use xlink:href="#m63e0e8e0f4" x="348.54042" y="294.48" style="fill: #ff0000; stroke: #ff0000"/>
     <use xlink:href="#m63e0e8e0f4" x="356.864895" y="294.48" style="fill: #ff0000; stroke: #ff0000"/>
     <use xlink:href="#m63e0e8e0f4" x="365.189371" y="294.48" style="fill: #ff0000; stroke: #ff0000"/>
     <use xlink:href="#m63e0e8e0f4" x="373.513846" y="294.48" style="fill: #ff0000; stroke: #ff0000"/>
     <use xlink:href="#m63e0e8e0f4" x="381.838322" y="295.488" style="fill: #ff0000; stroke: #ff0000"/>
     <use xlink:href="#m63e0e8e0f4" x="390.162797" y="295.488" style="fill: #ff0000; stroke: #ff0000"/>
     <use xlink:href="#m63e0e8e0f4" x="398.487273" y="294.48" style="fill: #ff0000; stroke: #ff0000"/>
    </g>
   </g>
   <g id="patch_3">
    <path d="M 57.6 307.584 
L 57.6 41.472 
" style="fill: none; stroke: #000000; stroke-width: 0.8; stroke-linejoin: miter; stroke-linecap: square"/>
   </g>
   <g id="patch_4">
    <path d="M 414.72 307.584 
L 414.72 41.472 
" style="fill: none; stroke: #000000; stroke-width: 0.8; stroke-linejoin: miter; stroke-linecap: square"/>
   </g>
   <g id="patch_5">
    <path d="M 57.6 307.584 
L 414.72 307.584 
" style="fill: none; stroke: #000000; stroke-width: 0.8; stroke-linejoin: miter; stroke-linecap: square"/>
   </g>
   <g id="patch_6">
    <path d="M 57.6 41.472 
L 414.72 41.472 
" style="fill: none; stroke: #000000; stroke-width: 0.8; stroke-linejoin: miter; stroke-linecap: square"/>
   </g>
   <g id="legend_1">
    <g id="patch_7">
     <path d="M 355.104375 78.82825 
L 407.72 78.82825 
Q 409.72 78.82825 409.72 76.82825 
L 409.72 48.472 
Q 409.72 46.472 407.72 46.472 
L 355.104375 46.472 
Q 353.104375 46.472 353.104375 48.472 
L 353.104375 76.82825 
Q 353.104375 78.82825 355.104375 78.82825 
z
" style="fill: #ffffff; opacity: 0.8; stroke: #cccccc; stroke-linejoin: miter"/>
    </g>
    <g id="line2d_15">
     <path d="M 357.104375 54.570437 
L 367.104375 54.570437 
L 377.104375 54.570437 
" style="fill: none; stroke: #0000ff; stroke-width: 1.5; stroke-linecap: square"/>
     <g>
      <use xlink:href="#m4acd757b0b" x="367.104375" y="54.570437" style="fill: #0000ff; stroke: #0000ff"/>
     </g>
    </g>
    <g id="text_15">
     <!-- USL -->
     <g transform="translate(385.104375 58.070437) scale(0.1 -0.1)">
      <defs>
       <path id="DejaVuSans-55" d="M 556 4666 
L 1191 4666 
L 1191 1831 
Q 1191 1081 1462 751 
Q 1734 422 2344 422 
Q 2950 422 3222 751 
Q 3494 1081 3494 1831 
L 3494 4666 
L 4128 4666 
L 4128 1753 
Q 4128 841 3676 375 
Q 3225 -91 2344 -91 
Q 1459 -91 1007 375 
Q 556 841 556 1753 
L 556 4666 
z
" transform="scale(0.015625)"/>
       <path id="DejaVuSans-53" d="M 3425 4513 
L 3425 3897 
Q 3066 4069 2747 4153 
Q 2428 4238 2131 4238 
Q 1616 4238 1336 4038 
Q 1056 3838 1056 3469 
Q 1056 3159 1242 3001 
Q 1428 2844 1947 2747 
L 2328 2669 
Q 3034 2534 3370 2195 
Q 3706 1856 3706 1288 
Q 3706 609 3251 259 
Q 2797 -91 1919 -91 
Q 1588 -91 1214 -16 
Q 841 59 441 206 
L 441 856 
Q 825 641 1194 531 
Q 1563 422 1919 422 
Q 2459 422 2753 634 
Q 3047 847 3047 1241 
Q 3047 1584 2836 1778 
Q 2625 1972 2144 2069 
L 1759 2144 
Q 1053 2284 737 2584 
Q 422 2884 422 3419 
Q 422 4038 858 4394 
Q 1294 4750 2059 4750 
Q 2388 4750 2728 4690 
Q 3069 4631 3425 4513 
z
" transform="scale(0.015625)"/>
       <path id="DejaVuSans-4c" d="M 628 4666 
L 1259 4666 
L 1259 531 
L 3531 531 
L 3531 0 
L 628 0 
L 628 4666 
z
" transform="scale(0.015625)"/>
      </defs>
      <use xlink:href="#DejaVuSans-55"/>
      <use xlink:href="#DejaVuSans-53" x="73.193359"/>
      <use xlink:href="#DejaVuSans-4c" x="136.669922"/>
     </g>
    </g>
    <g id="line2d_16">
     <path d="M 357.104375 69.248562 
L 367.104375 69.248562 
L 377.104375 69.248562 
" style="fill: none; stroke: #ff0000; stroke-width: 1.5; stroke-linecap: square"/>
     <g>
      <use xlink:href="#m63e0e8e0f4" x="367.104375" y="69.248562" style="fill: #ff0000; stroke: #ff0000"/>
     </g>
    </g>
    <g id="text_16">
     <!-- USR -->
     <g transform="translate(385.104375 72.748562) scale(0.1 -0.1)">
      <defs>
       <path id="DejaVuSans-52" d="M 2841 2188 
Q 3044 2119 3236 1894 
Q 3428 1669 3622 1275 
L 4263 0 
L 3584 0 
L 2988 1197 
Q 2756 1666 2539 1819 
Q 2322 1972 1947 1972 
L 1259 1972 
L 1259 0 
L 628 0 
L 628 4666 
L 2053 4666 
Q 2853 4666 3247 4331 
Q 3641 3997 3641 3322 
Q 3641 2881 3436 2590 
Q 3231 2300 2841 2188 
z
M 1259 4147 
L 1259 2491 
L 2053 2491 
Q 2509 2491 2742 2702 
Q 2975 2913 2975 3322 
Q 2975 3731 2742 3939 
Q 2509 4147 2053 4147 
L 1259 4147 
z
" transform="scale(0.015625)"/>
      </defs>
      <use xlink:href="#DejaVuSans-55"/>
      <use xlink:href="#DejaVuSans-53" x="73.193359"/>
      <use xlink:href="#DejaVuSans-52" x="136.669922"/>
     </g>
    </g>
   </g>
  </g>
 </g>
 <defs>
  <clipPath id="p5da84c405a">
   <rect x="57.6" y="41.472" width="357.12" height="266.112"/>
  </clipPath>
 </defs>
</svg>
