<?xml version="1.0" encoding="utf-8" standalone="no"?>
<!DOCTYPE svg PUBLIC "-//W3C//DTD SVG 1.1//EN"
  "http://www.w3.org/Graphics/SVG/1.1/DTD/svg11.dtd">
<svg xmlns:xlink="http://www.w3.org/1999/xlink" width="720pt" height="576pt" viewBox="0 0 720 576" xmlns="http://www.w3.org/2000/svg" version="1.1">
 <metadata>
  <rdf:RDF xmlns:dc="http://purl.org/dc/elements/1.1/" xmlns:cc="http://creativecommons.org/ns#" xmlns:rdf="http://www.w3.org/1999/02/22-rdf-syntax-ns#">
   <cc:Work>
    <dc:type rdf:resource="http://purl.org/dc/dcmitype/StillImage"/>
    <dc:date>2023-05-25T17:25:08.336058</dc:date>
    <dc:format>image/svg+xml</dc:format>
    <dc:creator>
     <cc:Agent>
      <dc:title>Matplotlib v3.7.1, https://matplotlib.org/</dc:title>
     </cc:Agent>
    </dc:creator>
   </cc:Work>
  </rdf:RDF>
 </metadata>
 <defs>
  <style type="text/css">*{stroke-linejoin: round; stroke-linecap: butt}</style>
 </defs>
 <g id="figure_1">
  <g id="patch_1">
   <path d="M 0 576 
L 720 576 
L 720 0 
L 0 0 
z
" style="fill: #ffffff"/>
  </g>
  <g id="axes_1">
   <g id="patch_2">
    <path d="M 90 246.528 
L 648 246.528 
L 648 69.12 
L 90 69.12 
z
" style="fill: #ffffff"/>
   </g>
   <g id="matplotlib.axis_1">
    <g id="xtick_1">
     <g id="line2d_1">
      <path d="M 115.363636 246.528 
L 115.363636 69.12 
" clip-path="url(#p078129aafd)" style="fill: none; stroke: #b0b0b0; stroke-width: 0.8; stroke-linecap: square"/>
     </g>
     <g id="line2d_2">
      <defs>
       <path id="mf53ee4e5b1" d="M 0 0 
L 0 3.5 
" style="stroke: #000000; stroke-width: 0.8"/>
      </defs>
      <g>
       <use xlink:href="#mf53ee4e5b1" x="115.363636" y="246.528" style="stroke: #000000; stroke-width: 0.8"/>
      </g>
     </g>
     <g id="text_1">
      <!-- 0.00 -->
      <g transform="translate(104.230824 261.126437) scale(0.1 -0.1)">
       <defs>
        <path id="DejaVuSans-30" d="M 2034 4250 
Q 1547 4250 1301 3770 
Q 1056 3291 1056 2328 
Q 1056 1369 1301 889 
Q 1547 409 2034 409 
Q 2525 409 2770 889 
Q 3016 1369 3016 2328 
Q 3016 3291 2770 3770 
Q 2525 4250 2034 4250 
z
M 2034 4750 
Q 2819 4750 3233 4129 
Q 3647 3509 3647 2328 
Q 3647 1150 3233 529 
Q 2819 -91 2034 -91 
Q 1250 -91 836 529 
Q 422 1150 422 2328 
Q 422 3509 836 4129 
Q 1250 4750 2034 4750 
z
" transform="scale(0.015625)"/>
        <path id="DejaVuSans-2e" d="M 684 794 
L 1344 794 
L 1344 0 
L 684 0 
L 684 794 
z
" transform="scale(0.015625)"/>
       </defs>
       <use xlink:href="#DejaVuSans-30"/>
       <use xlink:href="#DejaVuSans-2e" x="63.623047"/>
       <use xlink:href="#DejaVuSans-30" x="95.410156"/>
       <use xlink:href="#DejaVuSans-30" x="159.033203"/>
      </g>
     </g>
    </g>
    <g id="xtick_2">
     <g id="line2d_3">
      <path d="M 216.860472 246.528 
L 216.860472 69.12 
" clip-path="url(#p078129aafd)" style="fill: none; stroke: #b0b0b0; stroke-width: 0.8; stroke-linecap: square"/>
     </g>
     <g id="line2d_4">
      <g>
       <use xlink:href="#mf53ee4e5b1" x="216.860472" y="246.528" style="stroke: #000000; stroke-width: 0.8"/>
      </g>
     </g>
     <g id="text_2">
      <!-- 0.01 -->
      <g transform="translate(205.72766 261.126437) scale(0.1 -0.1)">
       <defs>
        <path id="DejaVuSans-31" d="M 794 531 
L 1825 531 
L 1825 4091 
L 703 3866 
L 703 4441 
L 1819 4666 
L 2450 4666 
L 2450 531 
L 3481 531 
L 3481 0 
L 794 0 
L 794 531 
z
" transform="scale(0.015625)"/>
       </defs>
       <use xlink:href="#DejaVuSans-30"/>
       <use xlink:href="#DejaVuSans-2e" x="63.623047"/>
       <use xlink:href="#DejaVuSans-30" x="95.410156"/>
       <use xlink:href="#DejaVuSans-31" x="159.033203"/>
      </g>
     </g>
    </g>
    <g id="xtick_3">
     <g id="line2d_5">
      <path d="M 318.357308 246.528 
L 318.357308 69.12 
" clip-path="url(#p078129aafd)" style="fill: none; stroke: #b0b0b0; stroke-width: 0.8; stroke-linecap: square"/>
     </g>
     <g id="line2d_6">
      <g>
       <use xlink:href="#mf53ee4e5b1" x="318.357308" y="246.528" style="stroke: #000000; stroke-width: 0.8"/>
      </g>
     </g>
     <g id="text_3">
      <!-- 0.02 -->
      <g transform="translate(307.224495 261.126437) scale(0.1 -0.1)">
       <defs>
        <path id="DejaVuSans-32" d="M 1228 531 
L 3431 531 
L 3431 0 
L 469 0 
L 469 531 
Q 828 903 1448 1529 
Q 2069 2156 2228 2338 
Q 2531 2678 2651 2914 
Q 2772 3150 2772 3378 
Q 2772 3750 2511 3984 
Q 2250 4219 1831 4219 
Q 1534 4219 1204 4116 
Q 875 4013 500 3803 
L 500 4441 
Q 881 4594 1212 4672 
Q 1544 4750 1819 4750 
Q 2544 4750 2975 4387 
Q 3406 4025 3406 3419 
Q 3406 3131 3298 2873 
Q 3191 2616 2906 2266 
Q 2828 2175 2409 1742 
Q 1991 1309 1228 531 
z
" transform="scale(0.015625)"/>
       </defs>
       <use xlink:href="#DejaVuSans-30"/>
       <use xlink:href="#DejaVuSans-2e" x="63.623047"/>
       <use xlink:href="#DejaVuSans-30" x="95.410156"/>
       <use xlink:href="#DejaVuSans-32" x="159.033203"/>
      </g>
     </g>
    </g>
    <g id="xtick_4">
     <g id="line2d_7">
      <path d="M 419.854144 246.528 
L 419.854144 69.12 
" clip-path="url(#p078129aafd)" style="fill: none; stroke: #b0b0b0; stroke-width: 0.8; stroke-linecap: square"/>
     </g>
     <g id="line2d_8">
      <g>
       <use xlink:href="#mf53ee4e5b1" x="419.854144" y="246.528" style="stroke: #000000; stroke-width: 0.8"/>
      </g>
     </g>
     <g id="text_4">
      <!-- 0.03 -->
      <g transform="translate(408.721331 261.126437) scale(0.1 -0.1)">
       <defs>
        <path id="DejaVuSans-33" d="M 2597 2516 
Q 3050 2419 3304 2112 
Q 3559 1806 3559 1356 
Q 3559 666 3084 287 
Q 2609 -91 1734 -91 
Q 1441 -91 1130 -33 
Q 819 25 488 141 
L 488 750 
Q 750 597 1062 519 
Q 1375 441 1716 441 
Q 2309 441 2620 675 
Q 2931 909 2931 1356 
Q 2931 1769 2642 2001 
Q 2353 2234 1838 2234 
L 1294 2234 
L 1294 2753 
L 1863 2753 
Q 2328 2753 2575 2939 
Q 2822 3125 2822 3475 
Q 2822 3834 2567 4026 
Q 2313 4219 1838 4219 
Q 1578 4219 1281 4162 
Q 984 4106 628 3988 
L 628 4550 
Q 988 4650 1302 4700 
Q 1616 4750 1894 4750 
Q 2613 4750 3031 4423 
Q 3450 4097 3450 3541 
Q 3450 3153 3228 2886 
Q 3006 2619 2597 2516 
z
" transform="scale(0.015625)"/>
       </defs>
       <use xlink:href="#DejaVuSans-30"/>
       <use xlink:href="#DejaVuSans-2e" x="63.623047"/>
       <use xlink:href="#DejaVuSans-30" x="95.410156"/>
       <use xlink:href="#DejaVuSans-33" x="159.033203"/>
      </g>
     </g>
    </g>
    <g id="xtick_5">
     <g id="line2d_9">
      <path d="M 521.35098 246.528 
L 521.35098 69.12 
" clip-path="url(#p078129aafd)" style="fill: none; stroke: #b0b0b0; stroke-width: 0.8; stroke-linecap: square"/>
     </g>
     <g id="line2d_10">
      <g>
       <use xlink:href="#mf53ee4e5b1" x="521.35098" y="246.528" style="stroke: #000000; stroke-width: 0.8"/>
      </g>
     </g>
     <g id="text_5">
      <!-- 0.04 -->
      <g transform="translate(510.218167 261.126437) scale(0.1 -0.1)">
       <defs>
        <path id="DejaVuSans-34" d="M 2419 4116 
L 825 1625 
L 2419 1625 
L 2419 4116 
z
M 2253 4666 
L 3047 4666 
L 3047 1625 
L 3713 1625 
L 3713 1100 
L 3047 1100 
L 3047 0 
L 2419 0 
L 2419 1100 
L 313 1100 
L 313 1709 
L 2253 4666 
z
" transform="scale(0.015625)"/>
       </defs>
       <use xlink:href="#DejaVuSans-30"/>
       <use xlink:href="#DejaVuSans-2e" x="63.623047"/>
       <use xlink:href="#DejaVuSans-30" x="95.410156"/>
       <use xlink:href="#DejaVuSans-34" x="159.033203"/>
      </g>
     </g>
    </g>
    <g id="xtick_6">
     <g id="line2d_11">
      <path d="M 622.847815 246.528 
L 622.847815 69.12 
" clip-path="url(#p078129aafd)" style="fill: none; stroke: #b0b0b0; stroke-width: 0.8; stroke-linecap: square"/>
     </g>
     <g id="line2d_12">
      <g>
       <use xlink:href="#mf53ee4e5b1" x="622.847815" y="246.528" style="stroke: #000000; stroke-width: 0.8"/>
      </g>
     </g>
     <g id="text_6">
      <!-- 0.05 -->
      <g transform="translate(611.715003 261.126437) scale(0.1 -0.1)">
       <defs>
        <path id="DejaVuSans-35" d="M 691 4666 
L 3169 4666 
L 3169 4134 
L 1269 4134 
L 1269 2991 
Q 1406 3038 1543 3061 
Q 1681 3084 1819 3084 
Q 2600 3084 3056 2656 
Q 3513 2228 3513 1497 
Q 3513 744 3044 326 
Q 2575 -91 1722 -91 
Q 1428 -91 1123 -41 
Q 819 9 494 109 
L 494 744 
Q 775 591 1075 516 
Q 1375 441 1709 441 
Q 2250 441 2565 725 
Q 2881 1009 2881 1497 
Q 2881 1984 2565 2268 
Q 2250 2553 1709 2553 
Q 1456 2553 1204 2497 
Q 953 2441 691 2322 
L 691 4666 
z
" transform="scale(0.015625)"/>
       </defs>
       <use xlink:href="#DejaVuSans-30"/>
       <use xlink:href="#DejaVuSans-2e" x="63.623047"/>
       <use xlink:href="#DejaVuSans-30" x="95.410156"/>
       <use xlink:href="#DejaVuSans-35" x="159.033203"/>
      </g>
     </g>
    </g>
    <g id="text_7">
     <!-- Time [s] -->
     <g transform="translate(348.671094 274.804562) scale(0.1 -0.1)">
      <defs>
       <path id="DejaVuSans-54" d="M -19 4666 
L 3928 4666 
L 3928 4134 
L 2272 4134 
L 2272 0 
L 1638 0 
L 1638 4134 
L -19 4134 
L -19 4666 
z
" transform="scale(0.015625)"/>
       <path id="DejaVuSans-69" d="M 603 3500 
L 1178 3500 
L 1178 0 
L 603 0 
L 603 3500 
z
M 603 4863 
L 1178 4863 
L 1178 4134 
L 603 4134 
L 603 4863 
z
" transform="scale(0.015625)"/>
       <path id="DejaVuSans-6d" d="M 3328 2828 
Q 3544 3216 3844 3400 
Q 4144 3584 4550 3584 
Q 5097 3584 5394 3201 
Q 5691 2819 5691 2113 
L 5691 0 
L 5113 0 
L 5113 2094 
Q 5113 2597 4934 2840 
Q 4756 3084 4391 3084 
Q 3944 3084 3684 2787 
Q 3425 2491 3425 1978 
L 3425 0 
L 2847 0 
L 2847 2094 
Q 2847 2600 2669 2842 
Q 2491 3084 2119 3084 
Q 1678 3084 1418 2786 
Q 1159 2488 1159 1978 
L 1159 0 
L 581 0 
L 581 3500 
L 1159 3500 
L 1159 2956 
Q 1356 3278 1631 3431 
Q 1906 3584 2284 3584 
Q 2666 3584 2933 3390 
Q 3200 3197 3328 2828 
z
" transform="scale(0.015625)"/>
       <path id="DejaVuSans-65" d="M 3597 1894 
L 3597 1613 
L 953 1613 
Q 991 1019 1311 708 
Q 1631 397 2203 397 
Q 2534 397 2845 478 
Q 3156 559 3463 722 
L 3463 178 
Q 3153 47 2828 -22 
Q 2503 -91 2169 -91 
Q 1331 -91 842 396 
Q 353 884 353 1716 
Q 353 2575 817 3079 
Q 1281 3584 2069 3584 
Q 2775 3584 3186 3129 
Q 3597 2675 3597 1894 
z
M 3022 2063 
Q 3016 2534 2758 2815 
Q 2500 3097 2075 3097 
Q 1594 3097 1305 2825 
Q 1016 2553 972 2059 
L 3022 2063 
z
" transform="scale(0.015625)"/>
       <path id="DejaVuSans-20" transform="scale(0.015625)"/>
       <path id="DejaVuSans-5b" d="M 550 4863 
L 1875 4863 
L 1875 4416 
L 1125 4416 
L 1125 -397 
L 1875 -397 
L 1875 -844 
L 550 -844 
L 550 4863 
z
" transform="scale(0.015625)"/>
       <path id="DejaVuSans-73" d="M 2834 3397 
L 2834 2853 
Q 2591 2978 2328 3040 
Q 2066 3103 1784 3103 
Q 1356 3103 1142 2972 
Q 928 2841 928 2578 
Q 928 2378 1081 2264 
Q 1234 2150 1697 2047 
L 1894 2003 
Q 2506 1872 2764 1633 
Q 3022 1394 3022 966 
Q 3022 478 2636 193 
Q 2250 -91 1575 -91 
Q 1294 -91 989 -36 
Q 684 19 347 128 
L 347 722 
Q 666 556 975 473 
Q 1284 391 1588 391 
Q 1994 391 2212 530 
Q 2431 669 2431 922 
Q 2431 1156 2273 1281 
Q 2116 1406 1581 1522 
L 1381 1569 
Q 847 1681 609 1914 
Q 372 2147 372 2553 
Q 372 3047 722 3315 
Q 1072 3584 1716 3584 
Q 2034 3584 2315 3537 
Q 2597 3491 2834 3397 
z
" transform="scale(0.015625)"/>
       <path id="DejaVuSans-5d" d="M 1947 4863 
L 1947 -844 
L 622 -844 
L 622 -397 
L 1369 -397 
L 1369 4416 
L 622 4416 
L 622 4863 
L 1947 4863 
z
" transform="scale(0.015625)"/>
      </defs>
      <use xlink:href="#DejaVuSans-54"/>
      <use xlink:href="#DejaVuSans-69" x="57.958984"/>
      <use xlink:href="#DejaVuSans-6d" x="85.742188"/>
      <use xlink:href="#DejaVuSans-65" x="183.154297"/>
      <use xlink:href="#DejaVuSans-20" x="244.677734"/>
      <use xlink:href="#DejaVuSans-5b" x="276.464844"/>
      <use xlink:href="#DejaVuSans-73" x="315.478516"/>
      <use xlink:href="#DejaVuSans-5d" x="367.578125"/>
     </g>
    </g>
   </g>
   <g id="matplotlib.axis_2">
    <g id="ytick_1">
     <g id="line2d_13">
      <path d="M 90 238.464 
L 648 238.464 
" clip-path="url(#p078129aafd)" style="fill: none; stroke: #b0b0b0; stroke-width: 0.8; stroke-linecap: square"/>
     </g>
     <g id="line2d_14">
      <defs>
       <path id="m12e32a44c8" d="M 0 0 
L -3.5 0 
" style="stroke: #000000; stroke-width: 0.8"/>
      </defs>
      <g>
       <use xlink:href="#m12e32a44c8" x="90" y="238.464" style="stroke: #000000; stroke-width: 0.8"/>
      </g>
     </g>
     <g id="text_8">
      <!-- −1.0 -->
      <g transform="translate(58.717187 242.263219) scale(0.1 -0.1)">
       <defs>
        <path id="DejaVuSans-2212" d="M 678 2272 
L 4684 2272 
L 4684 1741 
L 678 1741 
L 678 2272 
z
" transform="scale(0.015625)"/>
       </defs>
       <use xlink:href="#DejaVuSans-2212"/>
       <use xlink:href="#DejaVuSans-31" x="83.789062"/>
       <use xlink:href="#DejaVuSans-2e" x="147.412109"/>
       <use xlink:href="#DejaVuSans-30" x="179.199219"/>
      </g>
     </g>
    </g>
    <g id="ytick_2">
     <g id="line2d_15">
      <path d="M 90 198.144 
L 648 198.144 
" clip-path="url(#p078129aafd)" style="fill: none; stroke: #b0b0b0; stroke-width: 0.8; stroke-linecap: square"/>
     </g>
     <g id="line2d_16">
      <g>
       <use xlink:href="#m12e32a44c8" x="90" y="198.144" style="stroke: #000000; stroke-width: 0.8"/>
      </g>
     </g>
     <g id="text_9">
      <!-- −0.5 -->
      <g transform="translate(58.717187 201.943219) scale(0.1 -0.1)">
       <use xlink:href="#DejaVuSans-2212"/>
       <use xlink:href="#DejaVuSans-30" x="83.789062"/>
       <use xlink:href="#DejaVuSans-2e" x="147.412109"/>
       <use xlink:href="#DejaVuSans-35" x="179.199219"/>
      </g>
     </g>
    </g>
    <g id="ytick_3">
     <g id="line2d_17">
      <path d="M 90 157.824 
L 648 157.824 
" clip-path="url(#p078129aafd)" style="fill: none; stroke: #b0b0b0; stroke-width: 0.8; stroke-linecap: square"/>
     </g>
     <g id="line2d_18">
      <g>
       <use xlink:href="#m12e32a44c8" x="90" y="157.824" style="stroke: #000000; stroke-width: 0.8"/>
      </g>
     </g>
     <g id="text_10">
      <!-- 0.0 -->
      <g transform="translate(67.096875 161.623219) scale(0.1 -0.1)">
       <use xlink:href="#DejaVuSans-30"/>
       <use xlink:href="#DejaVuSans-2e" x="63.623047"/>
       <use xlink:href="#DejaVuSans-30" x="95.410156"/>
      </g>
     </g>
    </g>
    <g id="ytick_4">
     <g id="line2d_19">
      <path d="M 90 117.504 
L 648 117.504 
" clip-path="url(#p078129aafd)" style="fill: none; stroke: #b0b0b0; stroke-width: 0.8; stroke-linecap: square"/>
     </g>
     <g id="line2d_20">
      <g>
       <use xlink:href="#m12e32a44c8" x="90" y="117.504" style="stroke: #000000; stroke-width: 0.8"/>
      </g>
     </g>
     <g id="text_11">
      <!-- 0.5 -->
      <g transform="translate(67.096875 121.303219) scale(0.1 -0.1)">
       <use xlink:href="#DejaVuSans-30"/>
       <use xlink:href="#DejaVuSans-2e" x="63.623047"/>
       <use xlink:href="#DejaVuSans-35" x="95.410156"/>
      </g>
     </g>
    </g>
    <g id="ytick_5">
     <g id="line2d_21">
      <path d="M 90 77.184 
L 648 77.184 
" clip-path="url(#p078129aafd)" style="fill: none; stroke: #b0b0b0; stroke-width: 0.8; stroke-linecap: square"/>
     </g>
     <g id="line2d_22">
      <g>
       <use xlink:href="#m12e32a44c8" x="90" y="77.184" style="stroke: #000000; stroke-width: 0.8"/>
      </g>
     </g>
     <g id="text_12">
      <!-- 1.0 -->
      <g transform="translate(67.096875 80.983219) scale(0.1 -0.1)">
       <use xlink:href="#DejaVuSans-31"/>
       <use xlink:href="#DejaVuSans-2e" x="63.623047"/>
       <use xlink:href="#DejaVuSans-30" x="95.410156"/>
      </g>
     </g>
    </g>
    <g id="text_13">
     <!-- Amplitude -->
     <g transform="translate(52.6375 183.446656) rotate(-90) scale(0.1 -0.1)">
      <defs>
       <path id="DejaVuSans-41" d="M 2188 4044 
L 1331 1722 
L 3047 1722 
L 2188 4044 
z
M 1831 4666 
L 2547 4666 
L 4325 0 
L 3669 0 
L 3244 1197 
L 1141 1197 
L 716 0 
L 50 0 
L 1831 4666 
z
" transform="scale(0.015625)"/>
       <path id="DejaVuSans-70" d="M 1159 525 
L 1159 -1331 
L 581 -1331 
L 581 3500 
L 1159 3500 
L 1159 2969 
Q 1341 3281 1617 3432 
Q 1894 3584 2278 3584 
Q 2916 3584 3314 3078 
Q 3713 2572 3713 1747 
Q 3713 922 3314 415 
Q 2916 -91 2278 -91 
Q 1894 -91 1617 61 
Q 1341 213 1159 525 
z
M 3116 1747 
Q 3116 2381 2855 2742 
Q 2594 3103 2138 3103 
Q 1681 3103 1420 2742 
Q 1159 2381 1159 1747 
Q 1159 1113 1420 752 
Q 1681 391 2138 391 
Q 2594 391 2855 752 
Q 3116 1113 3116 1747 
z
" transform="scale(0.015625)"/>
       <path id="DejaVuSans-6c" d="M 603 4863 
L 1178 4863 
L 1178 0 
L 603 0 
L 603 4863 
z
" transform="scale(0.015625)"/>
       <path id="DejaVuSans-74" d="M 1172 4494 
L 1172 3500 
L 2356 3500 
L 2356 3053 
L 1172 3053 
L 1172 1153 
Q 1172 725 1289 603 
Q 1406 481 1766 481 
L 2356 481 
L 2356 0 
L 1766 0 
Q 1100 0 847 248 
Q 594 497 594 1153 
L 594 3053 
L 172 3053 
L 172 3500 
L 594 3500 
L 594 4494 
L 1172 4494 
z
" transform="scale(0.015625)"/>
       <path id="DejaVuSans-75" d="M 544 1381 
L 544 3500 
L 1119 3500 
L 1119 1403 
Q 1119 906 1312 657 
Q 1506 409 1894 409 
Q 2359 409 2629 706 
Q 2900 1003 2900 1516 
L 2900 3500 
L 3475 3500 
L 3475 0 
L 2900 0 
L 2900 538 
Q 2691 219 2414 64 
Q 2138 -91 1772 -91 
Q 1169 -91 856 284 
Q 544 659 544 1381 
z
M 1991 3584 
L 1991 3584 
z
" transform="scale(0.015625)"/>
       <path id="DejaVuSans-64" d="M 2906 2969 
L 2906 4863 
L 3481 4863 
L 3481 0 
L 2906 0 
L 2906 525 
Q 2725 213 2448 61 
Q 2172 -91 1784 -91 
Q 1150 -91 751 415 
Q 353 922 353 1747 
Q 353 2572 751 3078 
Q 1150 3584 1784 3584 
Q 2172 3584 2448 3432 
Q 2725 3281 2906 2969 
z
M 947 1747 
Q 947 1113 1208 752 
Q 1469 391 1925 391 
Q 2381 391 2643 752 
Q 2906 1113 2906 1747 
Q 2906 2381 2643 2742 
Q 2381 3103 1925 3103 
Q 1469 3103 1208 2742 
Q 947 2381 947 1747 
z
" transform="scale(0.015625)"/>
      </defs>
      <use xlink:href="#DejaVuSans-41"/>
      <use xlink:href="#DejaVuSans-6d" x="68.408203"/>
      <use xlink:href="#DejaVuSans-70" x="165.820312"/>
      <use xlink:href="#DejaVuSans-6c" x="229.296875"/>
      <use xlink:href="#DejaVuSans-69" x="257.080078"/>
      <use xlink:href="#DejaVuSans-74" x="284.863281"/>
      <use xlink:href="#DejaVuSans-75" x="324.072266"/>
      <use xlink:href="#DejaVuSans-64" x="387.451172"/>
      <use xlink:href="#DejaVuSans-65" x="450.927734"/>
     </g>
    </g>
   </g>
   <g id="line2d_23">
    <path d="M 115.363636 157.824 
L 146.869946 157.824 
L 147.292849 119.810567 
L 147.715753 86.705869 
L 147.927205 78.733475 
L 148.138656 77.572304 
L 148.350108 83.322354 
L 148.773011 113.022816 
L 150.041722 232.325646 
L 150.253174 238.075696 
L 150.464625 236.914525 
L 150.676077 228.942131 
L 151.098981 195.837433 
L 152.156239 90.77429 
L 152.367691 80.656331 
L 152.579143 77.184 
L 152.790595 80.656331 
L 153.002046 90.77429 
L 153.42495 126.964408 
L 154.270757 214.845091 
L 154.69366 236.914525 
L 154.905112 238.075696 
L 155.116564 232.325646 
L 155.539467 202.625184 
L 156.808178 83.322354 
L 157.019629 77.572304 
L 157.231081 78.733475 
L 157.442533 86.705869 
L 157.865436 119.810567 
L 158.922695 224.87371 
L 159.134147 234.991669 
L 159.345599 238.464 
L 159.55705 234.991669 
L 159.768502 224.87371 
L 160.191406 188.683592 
L 161.037212 100.802909 
L 161.460116 78.733475 
L 161.671568 77.572304 
L 161.883019 83.322354 
L 162.305923 113.022816 
L 163.574633 232.325646 
L 163.786085 238.075696 
L 163.997537 236.914525 
L 164.208989 228.942131 
L 164.631892 195.837433 
L 165.689151 90.77429 
L 165.900603 80.656331 
L 166.112054 77.184 
L 166.323506 80.656331 
L 166.534958 90.77429 
L 166.957861 126.964408 
L 167.803668 214.845091 
L 168.226572 236.914525 
L 168.438023 238.075696 
L 168.649475 232.325646 
L 169.072379 202.625184 
L 170.341089 83.322354 
L 170.552541 77.572304 
L 170.763993 78.733475 
L 170.975444 86.705869 
L 171.398348 119.810567 
L 172.455607 224.87371 
L 172.667058 234.991669 
L 172.87851 238.464 
L 173.089962 234.991669 
L 173.301413 224.87371 
L 173.724317 188.683592 
L 174.570124 100.802909 
L 174.993027 78.733475 
L 175.204479 77.572304 
L 175.415931 83.322354 
L 175.838834 113.022816 
L 177.107545 232.325646 
L 177.318997 238.075696 
L 177.530448 236.914525 
L 177.7419 228.942131 
L 178.164804 195.837433 
L 178.587707 149.919898 
L 178.799159 157.824 
L 210.305468 157.824 
L 210.51692 113.022816 
L 210.939823 83.322354 
L 211.151275 77.572304 
L 211.362727 78.733475 
L 211.574179 86.705869 
L 211.997082 119.810567 
L 213.054341 224.87371 
L 213.265793 234.991669 
L 213.477244 238.464 
L 213.688696 234.991669 
L 213.900148 224.87371 
L 214.323051 188.683592 
L 215.168858 100.802909 
L 215.591762 78.733475 
L 215.803213 77.572304 
L 216.014665 83.322354 
L 216.437569 113.022816 
L 217.706279 232.325646 
L 217.917731 238.075696 
L 218.129183 236.914525 
L 218.340634 228.942131 
L 218.763538 195.837433 
L 219.820797 90.77429 
L 220.032248 80.656331 
L 220.2437 77.184 
L 220.455152 80.656331 
L 220.666604 90.77429 
L 221.089507 126.964408 
L 221.935314 214.845091 
L 222.358217 236.914525 
L 222.569669 238.075696 
L 222.781121 232.325646 
L 223.204024 202.625184 
L 224.472735 83.322354 
L 224.684187 77.572304 
L 224.895638 78.733475 
L 225.10709 86.705869 
L 225.529994 119.810567 
L 226.587252 224.87371 
L 226.798704 234.991669 
L 227.010156 238.464 
L 227.221607 234.991669 
L 227.433059 224.87371 
L 227.855963 188.683592 
L 228.70177 100.802909 
L 229.124673 78.733475 
L 229.336125 77.572304 
L 229.547577 83.322354 
L 229.97048 113.022816 
L 231.239191 232.325646 
L 231.450642 238.075696 
L 231.662094 236.914525 
L 231.873546 228.942131 
L 232.296449 195.837433 
L 233.353708 90.77429 
L 233.56516 80.656331 
L 233.776611 77.184 
L 233.988063 80.656331 
L 234.199515 90.77429 
L 234.622418 126.964408 
L 235.468225 214.845091 
L 235.891129 236.914525 
L 236.102581 238.075696 
L 236.314032 232.325646 
L 236.736936 202.625184 
L 238.005646 83.322354 
L 238.217098 77.572304 
L 238.42855 78.733475 
L 238.640002 86.705869 
L 239.062905 119.810567 
L 240.120164 224.87371 
L 240.331615 234.991669 
L 240.543067 238.464 
L 240.754519 234.991669 
L 240.965971 224.87371 
L 241.388874 188.683592 
L 242.023229 119.810567 
L 242.234681 157.824 
L 257.88211 157.824 
L 258.093562 220.159563 
L 258.305013 232.325646 
L 258.516465 238.075696 
L 258.727917 236.914525 
L 258.939369 228.942131 
L 259.362272 195.837433 
L 260.419531 90.77429 
L 260.630983 80.656331 
L 260.842434 77.184 
L 261.053886 80.656331 
L 261.265338 90.77429 
L 261.688241 126.964408 
L 262.534048 214.845091 
L 262.956952 236.914525 
L 263.168404 238.075696 
L 263.379855 232.325646 
L 263.802759 202.625184 
L 265.071469 83.322354 
L 265.282921 77.572304 
L 265.494373 78.733475 
L 265.705824 86.705869 
L 266.128728 119.810567 
L 267.185987 224.87371 
L 267.397438 234.991669 
L 267.60889 238.464 
L 267.820342 234.991669 
L 268.031794 224.87371 
L 268.454697 188.683592 
L 269.300504 100.802909 
L 269.723407 78.733475 
L 269.934859 77.572304 
L 270.146311 83.322354 
L 270.569214 113.022816 
L 271.837925 232.325646 
L 272.049377 238.075696 
L 272.260828 236.914525 
L 272.47228 228.942131 
L 272.895184 195.837433 
L 273.740991 106.666526 
L 273.952442 157.824 
L 289.599871 157.824 
L 289.811323 228.942131 
L 290.022775 236.914525 
L 290.234226 238.075696 
L 290.445678 232.325646 
L 290.868582 202.625184 
L 292.137292 83.322354 
L 292.348744 77.572304 
L 292.560196 78.733475 
L 292.771647 86.705869 
L 293.194551 119.810567 
L 294.251809 224.87371 
L 294.463261 234.991669 
L 294.674713 238.464 
L 294.886165 234.991669 
L 295.097616 224.87371 
L 295.52052 188.683592 
L 296.366327 100.802909 
L 296.78923 78.733475 
L 297.000682 77.572304 
L 297.212134 83.322354 
L 297.635037 113.022816 
L 298.903748 232.325646 
L 299.1152 238.075696 
L 299.326651 236.914525 
L 299.538103 228.942131 
L 299.961006 195.837433 
L 301.018265 90.77429 
L 301.229717 80.656331 
L 301.441169 77.184 
L 301.65262 80.656331 
L 301.864072 90.77429 
L 302.286976 126.964408 
L 303.132783 214.845091 
L 303.555686 236.914525 
L 303.767138 238.075696 
L 303.97859 232.325646 
L 304.401493 202.625184 
L 305.458752 95.488437 
L 305.670203 157.824 
L 321.317632 157.824 
L 321.529084 234.991669 
L 321.740536 238.464 
L 321.951988 234.991669 
L 322.163439 224.87371 
L 322.586343 188.683592 
L 323.43215 100.802909 
L 323.855053 78.733475 
L 324.066505 77.572304 
L 324.277957 83.322354 
L 324.70086 113.022816 
L 325.969571 232.325646 
L 326.181022 238.075696 
L 326.392474 236.914525 
L 326.603926 228.942131 
L 327.026829 195.837433 
L 328.084088 90.77429 
L 328.29554 80.656331 
L 328.506992 77.184 
L 328.718443 80.656331 
L 328.929895 90.77429 
L 329.352799 126.964408 
L 330.198605 214.845091 
L 330.621509 236.914525 
L 330.832961 238.075696 
L 331.044412 232.325646 
L 331.467316 202.625184 
L 332.736026 83.322354 
L 332.947478 77.572304 
L 333.15893 78.733475 
L 333.370382 86.705869 
L 333.793285 119.810567 
L 334.850544 224.87371 
L 335.061996 234.991669 
L 335.273447 238.464 
L 335.484899 234.991669 
L 335.696351 224.87371 
L 336.119254 188.683592 
L 336.965061 100.802909 
L 337.176513 86.705869 
L 337.387965 157.824 
L 353.035394 157.824 
L 353.246845 238.075696 
L 353.458297 236.914525 
L 353.669749 228.942131 
L 354.092652 195.837433 
L 355.149911 90.77429 
L 355.361363 80.656331 
L 355.572814 77.184 
L 355.784266 80.656331 
L 355.995718 90.77429 
L 356.418621 126.964408 
L 357.264428 214.845091 
L 357.687332 236.914525 
L 357.898784 238.075696 
L 358.110235 232.325646 
L 358.533139 202.625184 
L 359.801849 83.322354 
L 360.013301 77.572304 
L 360.224753 78.733475 
L 360.436204 86.705869 
L 360.859108 119.810567 
L 361.916367 224.87371 
L 362.127818 234.991669 
L 362.33927 238.464 
L 362.550722 234.991669 
L 362.762174 224.87371 
L 363.185077 188.683592 
L 364.030884 100.802909 
L 364.453788 78.733475 
L 364.665239 77.572304 
L 364.876691 83.322354 
L 365.299595 113.022816 
L 366.568305 232.325646 
L 366.779757 238.075696 
L 366.991208 236.914525 
L 367.20266 228.942131 
L 367.625564 195.837433 
L 368.682822 90.77429 
L 368.894274 80.656331 
L 369.105726 77.184 
L 369.317178 80.656331 
L 369.528629 90.77429 
L 369.951533 126.964408 
L 370.79734 214.845091 
L 371.220243 236.914525 
L 371.431695 238.075696 
L 371.643147 232.325646 
L 372.06605 202.625184 
L 373.334761 83.322354 
L 373.546212 77.572304 
L 373.757664 78.733475 
L 373.969116 86.705869 
L 374.392019 119.810567 
L 375.449278 224.87371 
L 375.66073 234.991669 
L 375.872182 238.464 
L 376.083633 234.991669 
L 376.295085 224.87371 
L 376.717989 188.683592 
L 377.563796 100.802909 
L 377.986699 78.733475 
L 378.198151 77.572304 
L 378.409602 83.322354 
L 378.832506 113.022816 
L 380.101216 232.325646 
L 380.312668 238.075696 
L 380.52412 236.914525 
L 380.735572 228.942131 
L 381.158475 195.837433 
L 382.215734 90.77429 
L 382.427186 80.656331 
L 382.638637 77.184 
L 382.850089 80.656331 
L 383.061541 90.77429 
L 383.484444 126.964408 
L 384.330251 214.845091 
L 384.753155 236.914525 
L 384.964606 157.824 
L 400.612035 157.824 
L 400.823487 78.733475 
L 401.034939 86.705869 
L 401.457842 119.810567 
L 402.515101 224.87371 
L 402.726553 234.991669 
L 402.938004 238.464 
L 403.149456 234.991669 
L 403.360908 224.87371 
L 403.783811 188.683592 
L 404.629618 100.802909 
L 405.052522 78.733475 
L 405.263974 77.572304 
L 405.475425 83.322354 
L 405.898329 113.022816 
L 407.167039 232.325646 
L 407.378491 238.075696 
L 407.589943 236.914525 
L 407.801395 228.942131 
L 408.224298 195.837433 
L 409.281557 90.77429 
L 409.493008 80.656331 
L 409.70446 77.184 
L 409.915912 80.656331 
L 410.127364 90.77429 
L 410.550267 126.964408 
L 411.396074 214.845091 
L 411.818978 236.914525 
L 412.030429 238.075696 
L 412.241881 232.325646 
L 412.664785 202.625184 
L 413.933495 83.322354 
L 414.144947 77.572304 
L 414.356398 78.733475 
L 414.56785 86.705869 
L 414.990754 119.810567 
L 416.048012 224.87371 
L 416.259464 234.991669 
L 416.470916 238.464 
L 416.682368 157.824 
L 448.188677 157.824 
L 448.400129 228.942131 
L 448.823032 195.837433 
L 449.880291 90.77429 
L 450.091743 80.656331 
L 450.303195 77.184 
L 450.514646 80.656331 
L 450.726098 90.77429 
L 451.149001 126.964408 
L 451.994808 214.845091 
L 452.417712 236.914525 
L 452.629164 238.075696 
L 452.840615 232.325646 
L 453.263519 202.625184 
L 454.532229 83.322354 
L 454.743681 77.572304 
L 454.955133 78.733475 
L 455.166585 86.705869 
L 455.589488 119.810567 
L 456.646747 224.87371 
L 456.858198 234.991669 
L 457.06965 238.464 
L 457.281102 234.991669 
L 457.492554 224.87371 
L 457.915457 188.683592 
L 458.761264 100.802909 
L 459.184168 78.733475 
L 459.395619 77.572304 
L 459.607071 83.322354 
L 460.029975 113.022816 
L 461.298685 232.325646 
L 461.510137 238.075696 
L 461.721589 236.914525 
L 461.93304 228.942131 
L 462.355944 195.837433 
L 463.413202 90.77429 
L 463.624654 80.656331 
L 463.836106 77.184 
L 464.047558 80.656331 
L 464.259009 90.77429 
L 464.681913 126.964408 
L 465.52772 214.845091 
L 465.950623 236.914525 
L 466.162075 238.075696 
L 466.373527 232.325646 
L 466.79643 202.625184 
L 468.065141 83.322354 
L 468.276593 77.572304 
L 468.488044 78.733475 
L 468.699496 86.705869 
L 469.122399 119.810567 
L 470.179658 224.87371 
L 470.39111 234.991669 
L 470.602562 238.464 
L 470.814013 234.991669 
L 471.025465 224.87371 
L 471.448369 188.683592 
L 472.294176 100.802909 
L 472.717079 78.733475 
L 472.928531 77.572304 
L 473.139983 83.322354 
L 473.562886 113.022816 
L 474.831596 232.325646 
L 475.043048 238.075696 
L 475.2545 236.914525 
L 475.465952 228.942131 
L 475.888855 195.837433 
L 476.946114 90.77429 
L 477.157566 80.656331 
L 477.369017 77.184 
L 477.580469 80.656331 
L 477.791921 90.77429 
L 478.214824 126.964408 
L 479.060631 214.845091 
L 479.483535 236.914525 
L 479.694987 238.075696 
L 479.906438 232.325646 
L 480.329342 202.625184 
L 481.598052 83.322354 
L 481.809504 77.572304 
L 482.020956 78.733475 
L 482.232407 86.705869 
L 482.655311 119.810567 
L 483.71257 224.87371 
L 483.924021 234.991669 
L 484.135473 238.464 
L 484.346925 234.991669 
L 484.558377 224.87371 
L 484.98128 188.683592 
L 485.827087 100.802909 
L 486.249991 78.733475 
L 486.461442 77.572304 
L 486.672894 83.322354 
L 487.095797 113.022816 
L 488.364508 232.325646 
L 488.57596 238.075696 
L 488.787411 236.914525 
L 488.998863 228.942131 
L 489.421767 195.837433 
L 490.479025 90.77429 
L 490.690477 80.656331 
L 490.901929 77.184 
L 491.113381 80.656331 
L 491.324832 90.77429 
L 491.747736 126.964408 
L 492.593543 214.845091 
L 493.016446 236.914525 
L 493.227898 238.075696 
L 493.43935 232.325646 
L 493.862253 202.625184 
L 495.130964 83.322354 
L 495.342415 77.572304 
L 495.553867 78.733475 
L 495.765319 86.705869 
L 496.188222 119.810567 
L 497.245481 224.87371 
L 497.456933 234.991669 
L 497.668385 238.464 
L 497.879836 234.991669 
L 498.091288 224.87371 
L 498.514192 188.683592 
L 499.359998 100.802909 
L 499.782902 78.733475 
L 499.994354 77.572304 
L 500.205805 83.322354 
L 500.628709 113.022816 
L 501.897419 232.325646 
L 502.108871 238.075696 
L 502.320323 236.914525 
L 502.531775 228.942131 
L 502.954678 195.837433 
L 504.011937 90.77429 
L 504.223389 80.656331 
L 504.43484 77.184 
L 504.646292 80.656331 
L 504.857744 90.77429 
L 505.280647 126.964408 
L 506.126454 214.845091 
L 506.549358 236.914525 
L 506.760809 238.075696 
L 506.972261 232.325646 
L 507.395165 202.625184 
L 508.663875 83.322354 
L 508.875327 77.572304 
L 509.086779 78.733475 
L 509.29823 86.705869 
L 509.721134 119.810567 
L 510.778393 224.87371 
L 510.989844 234.991669 
L 511.201296 238.464 
L 511.412748 234.991669 
L 511.624199 224.87371 
L 511.835651 157.824 
L 622.636364 157.824 
L 622.636364 157.824 
" clip-path="url(#p078129aafd)" style="fill: none; stroke: #1f77b4; stroke-width: 1.5; stroke-linecap: square"/>
   </g>
   <g id="patch_3">
    <path d="M 90 246.528 
L 90 69.12 
" style="fill: none; stroke: #000000; stroke-width: 0.8; stroke-linejoin: miter; stroke-linecap: square"/>
   </g>
   <g id="patch_4">
    <path d="M 648 246.528 
L 648 69.12 
" style="fill: none; stroke: #000000; stroke-width: 0.8; stroke-linejoin: miter; stroke-linecap: square"/>
   </g>
   <g id="patch_5">
    <path d="M 90 246.528 
L 648 246.528 
" style="fill: none; stroke: #000000; stroke-width: 0.8; stroke-linejoin: miter; stroke-linecap: square"/>
   </g>
   <g id="patch_6">
    <path d="M 90 69.12 
L 648 69.12 
" style="fill: none; stroke: #000000; stroke-width: 0.8; stroke-linejoin: miter; stroke-linecap: square"/>
   </g>
   <g id="text_14">
    <!-- Ideal analog OOK waveform (gold code: 0x3355A780) -->
    <g transform="translate(207.117188 63.12) scale(0.12 -0.12)">
     <defs>
      <path id="DejaVuSans-49" d="M 628 4666 
L 1259 4666 
L 1259 0 
L 628 0 
L 628 4666 
z
" transform="scale(0.015625)"/>
      <path id="DejaVuSans-61" d="M 2194 1759 
Q 1497 1759 1228 1600 
Q 959 1441 959 1056 
Q 959 750 1161 570 
Q 1363 391 1709 391 
Q 2188 391 2477 730 
Q 2766 1069 2766 1631 
L 2766 1759 
L 2194 1759 
z
M 3341 1997 
L 3341 0 
L 2766 0 
L 2766 531 
Q 2569 213 2275 61 
Q 1981 -91 1556 -91 
Q 1019 -91 701 211 
Q 384 513 384 1019 
Q 384 1609 779 1909 
Q 1175 2209 1959 2209 
L 2766 2209 
L 2766 2266 
Q 2766 2663 2505 2880 
Q 2244 3097 1772 3097 
Q 1472 3097 1187 3025 
Q 903 2953 641 2809 
L 641 3341 
Q 956 3463 1253 3523 
Q 1550 3584 1831 3584 
Q 2591 3584 2966 3190 
Q 3341 2797 3341 1997 
z
" transform="scale(0.015625)"/>
      <path id="DejaVuSans-6e" d="M 3513 2113 
L 3513 0 
L 2938 0 
L 2938 2094 
Q 2938 2591 2744 2837 
Q 2550 3084 2163 3084 
Q 1697 3084 1428 2787 
Q 1159 2491 1159 1978 
L 1159 0 
L 581 0 
L 581 3500 
L 1159 3500 
L 1159 2956 
Q 1366 3272 1645 3428 
Q 1925 3584 2291 3584 
Q 2894 3584 3203 3211 
Q 3513 2838 3513 2113 
z
" transform="scale(0.015625)"/>
      <path id="DejaVuSans-6f" d="M 1959 3097 
Q 1497 3097 1228 2736 
Q 959 2375 959 1747 
Q 959 1119 1226 758 
Q 1494 397 1959 397 
Q 2419 397 2687 759 
Q 2956 1122 2956 1747 
Q 2956 2369 2687 2733 
Q 2419 3097 1959 3097 
z
M 1959 3584 
Q 2709 3584 3137 3096 
Q 3566 2609 3566 1747 
Q 3566 888 3137 398 
Q 2709 -91 1959 -91 
Q 1206 -91 779 398 
Q 353 888 353 1747 
Q 353 2609 779 3096 
Q 1206 3584 1959 3584 
z
" transform="scale(0.015625)"/>
      <path id="DejaVuSans-67" d="M 2906 1791 
Q 2906 2416 2648 2759 
Q 2391 3103 1925 3103 
Q 1463 3103 1205 2759 
Q 947 2416 947 1791 
Q 947 1169 1205 825 
Q 1463 481 1925 481 
Q 2391 481 2648 825 
Q 2906 1169 2906 1791 
z
M 3481 434 
Q 3481 -459 3084 -895 
Q 2688 -1331 1869 -1331 
Q 1566 -1331 1297 -1286 
Q 1028 -1241 775 -1147 
L 775 -588 
Q 1028 -725 1275 -790 
Q 1522 -856 1778 -856 
Q 2344 -856 2625 -561 
Q 2906 -266 2906 331 
L 2906 616 
Q 2728 306 2450 153 
Q 2172 0 1784 0 
Q 1141 0 747 490 
Q 353 981 353 1791 
Q 353 2603 747 3093 
Q 1141 3584 1784 3584 
Q 2172 3584 2450 3431 
Q 2728 3278 2906 2969 
L 2906 3500 
L 3481 3500 
L 3481 434 
z
" transform="scale(0.015625)"/>
      <path id="DejaVuSans-4f" d="M 2522 4238 
Q 1834 4238 1429 3725 
Q 1025 3213 1025 2328 
Q 1025 1447 1429 934 
Q 1834 422 2522 422 
Q 3209 422 3611 934 
Q 4013 1447 4013 2328 
Q 4013 3213 3611 3725 
Q 3209 4238 2522 4238 
z
M 2522 4750 
Q 3503 4750 4090 4092 
Q 4678 3434 4678 2328 
Q 4678 1225 4090 567 
Q 3503 -91 2522 -91 
Q 1538 -91 948 565 
Q 359 1222 359 2328 
Q 359 3434 948 4092 
Q 1538 4750 2522 4750 
z
" transform="scale(0.015625)"/>
      <path id="DejaVuSans-4b" d="M 628 4666 
L 1259 4666 
L 1259 2694 
L 3353 4666 
L 4166 4666 
L 1850 2491 
L 4331 0 
L 3500 0 
L 1259 2247 
L 1259 0 
L 628 0 
L 628 4666 
z
" transform="scale(0.015625)"/>
      <path id="DejaVuSans-77" d="M 269 3500 
L 844 3500 
L 1563 769 
L 2278 3500 
L 2956 3500 
L 3675 769 
L 4391 3500 
L 4966 3500 
L 4050 0 
L 3372 0 
L 2619 2869 
L 1863 0 
L 1184 0 
L 269 3500 
z
" transform="scale(0.015625)"/>
      <path id="DejaVuSans-76" d="M 191 3500 
L 800 3500 
L 1894 563 
L 2988 3500 
L 3597 3500 
L 2284 0 
L 1503 0 
L 191 3500 
z
" transform="scale(0.015625)"/>
      <path id="DejaVuSans-66" d="M 2375 4863 
L 2375 4384 
L 1825 4384 
Q 1516 4384 1395 4259 
Q 1275 4134 1275 3809 
L 1275 3500 
L 2222 3500 
L 2222 3053 
L 1275 3053 
L 1275 0 
L 697 0 
L 697 3053 
L 147 3053 
L 147 3500 
L 697 3500 
L 697 3744 
Q 697 4328 969 4595 
Q 1241 4863 1831 4863 
L 2375 4863 
z
" transform="scale(0.015625)"/>
      <path id="DejaVuSans-72" d="M 2631 2963 
Q 2534 3019 2420 3045 
Q 2306 3072 2169 3072 
Q 1681 3072 1420 2755 
Q 1159 2438 1159 1844 
L 1159 0 
L 581 0 
L 581 3500 
L 1159 3500 
L 1159 2956 
Q 1341 3275 1631 3429 
Q 1922 3584 2338 3584 
Q 2397 3584 2469 3576 
Q 2541 3569 2628 3553 
L 2631 2963 
z
" transform="scale(0.015625)"/>
      <path id="DejaVuSans-28" d="M 1984 4856 
Q 1566 4138 1362 3434 
Q 1159 2731 1159 2009 
Q 1159 1288 1364 580 
Q 1569 -128 1984 -844 
L 1484 -844 
Q 1016 -109 783 600 
Q 550 1309 550 2009 
Q 550 2706 781 3412 
Q 1013 4119 1484 4856 
L 1984 4856 
z
" transform="scale(0.015625)"/>
      <path id="DejaVuSans-63" d="M 3122 3366 
L 3122 2828 
Q 2878 2963 2633 3030 
Q 2388 3097 2138 3097 
Q 1578 3097 1268 2742 
Q 959 2388 959 1747 
Q 959 1106 1268 751 
Q 1578 397 2138 397 
Q 2388 397 2633 464 
Q 2878 531 3122 666 
L 3122 134 
Q 2881 22 2623 -34 
Q 2366 -91 2075 -91 
Q 1284 -91 818 406 
Q 353 903 353 1747 
Q 353 2603 823 3093 
Q 1294 3584 2113 3584 
Q 2378 3584 2631 3529 
Q 2884 3475 3122 3366 
z
" transform="scale(0.015625)"/>
      <path id="DejaVuSans-3a" d="M 750 794 
L 1409 794 
L 1409 0 
L 750 0 
L 750 794 
z
M 750 3309 
L 1409 3309 
L 1409 2516 
L 750 2516 
L 750 3309 
z
" transform="scale(0.015625)"/>
      <path id="DejaVuSans-78" d="M 3513 3500 
L 2247 1797 
L 3578 0 
L 2900 0 
L 1881 1375 
L 863 0 
L 184 0 
L 1544 1831 
L 300 3500 
L 978 3500 
L 1906 2253 
L 2834 3500 
L 3513 3500 
z
" transform="scale(0.015625)"/>
      <path id="DejaVuSans-37" d="M 525 4666 
L 3525 4666 
L 3525 4397 
L 1831 0 
L 1172 0 
L 2766 4134 
L 525 4134 
L 525 4666 
z
" transform="scale(0.015625)"/>
      <path id="DejaVuSans-38" d="M 2034 2216 
Q 1584 2216 1326 1975 
Q 1069 1734 1069 1313 
Q 1069 891 1326 650 
Q 1584 409 2034 409 
Q 2484 409 2743 651 
Q 3003 894 3003 1313 
Q 3003 1734 2745 1975 
Q 2488 2216 2034 2216 
z
M 1403 2484 
Q 997 2584 770 2862 
Q 544 3141 544 3541 
Q 544 4100 942 4425 
Q 1341 4750 2034 4750 
Q 2731 4750 3128 4425 
Q 3525 4100 3525 3541 
Q 3525 3141 3298 2862 
Q 3072 2584 2669 2484 
Q 3125 2378 3379 2068 
Q 3634 1759 3634 1313 
Q 3634 634 3220 271 
Q 2806 -91 2034 -91 
Q 1263 -91 848 271 
Q 434 634 434 1313 
Q 434 1759 690 2068 
Q 947 2378 1403 2484 
z
M 1172 3481 
Q 1172 3119 1398 2916 
Q 1625 2713 2034 2713 
Q 2441 2713 2670 2916 
Q 2900 3119 2900 3481 
Q 2900 3844 2670 4047 
Q 2441 4250 2034 4250 
Q 1625 4250 1398 4047 
Q 1172 3844 1172 3481 
z
" transform="scale(0.015625)"/>
      <path id="DejaVuSans-29" d="M 513 4856 
L 1013 4856 
Q 1481 4119 1714 3412 
Q 1947 2706 1947 2009 
Q 1947 1309 1714 600 
Q 1481 -109 1013 -844 
L 513 -844 
Q 928 -128 1133 580 
Q 1338 1288 1338 2009 
Q 1338 2731 1133 3434 
Q 928 4138 513 4856 
z
" transform="scale(0.015625)"/>
     </defs>
     <use xlink:href="#DejaVuSans-49"/>
     <use xlink:href="#DejaVuSans-64" x="29.492188"/>
     <use xlink:href="#DejaVuSans-65" x="92.96875"/>
     <use xlink:href="#DejaVuSans-61" x="154.492188"/>
     <use xlink:href="#DejaVuSans-6c" x="215.771484"/>
     <use xlink:href="#DejaVuSans-20" x="243.554688"/>
     <use xlink:href="#DejaVuSans-61" x="275.341797"/>
     <use xlink:href="#DejaVuSans-6e" x="336.621094"/>
     <use xlink:href="#DejaVuSans-61" x="400"/>
     <use xlink:href="#DejaVuSans-6c" x="461.279297"/>
     <use xlink:href="#DejaVuSans-6f" x="489.0625"/>
     <use xlink:href="#DejaVuSans-67" x="550.244141"/>
     <use xlink:href="#DejaVuSans-20" x="613.720703"/>
     <use xlink:href="#DejaVuSans-4f" x="645.507812"/>
     <use xlink:href="#DejaVuSans-4f" x="724.21875"/>
     <use xlink:href="#DejaVuSans-4b" x="802.929688"/>
     <use xlink:href="#DejaVuSans-20" x="868.505859"/>
     <use xlink:href="#DejaVuSans-77" x="900.292969"/>
     <use xlink:href="#DejaVuSans-61" x="982.080078"/>
     <use xlink:href="#DejaVuSans-76" x="1043.359375"/>
     <use xlink:href="#DejaVuSans-65" x="1102.539062"/>
     <use xlink:href="#DejaVuSans-66" x="1164.0625"/>
     <use xlink:href="#DejaVuSans-6f" x="1199.267578"/>
     <use xlink:href="#DejaVuSans-72" x="1260.449219"/>
     <use xlink:href="#DejaVuSans-6d" x="1299.8125"/>
     <use xlink:href="#DejaVuSans-20" x="1397.224609"/>
     <use xlink:href="#DejaVuSans-28" x="1429.011719"/>
     <use xlink:href="#DejaVuSans-67" x="1468.025391"/>
     <use xlink:href="#DejaVuSans-6f" x="1531.501953"/>
     <use xlink:href="#DejaVuSans-6c" x="1592.683594"/>
     <use xlink:href="#DejaVuSans-64" x="1620.466797"/>
     <use xlink:href="#DejaVuSans-20" x="1683.943359"/>
     <use xlink:href="#DejaVuSans-63" x="1715.730469"/>
     <use xlink:href="#DejaVuSans-6f" x="1770.710938"/>
     <use xlink:href="#DejaVuSans-64" x="1831.892578"/>
     <use xlink:href="#DejaVuSans-65" x="1895.369141"/>
     <use xlink:href="#DejaVuSans-3a" x="1956.892578"/>
     <use xlink:href="#DejaVuSans-20" x="1990.583984"/>
     <use xlink:href="#DejaVuSans-30" x="2022.371094"/>
     <use xlink:href="#DejaVuSans-78" x="2085.994141"/>
     <use xlink:href="#DejaVuSans-33" x="2145.173828"/>
     <use xlink:href="#DejaVuSans-33" x="2208.796875"/>
     <use xlink:href="#DejaVuSans-35" x="2272.419922"/>
     <use xlink:href="#DejaVuSans-35" x="2336.042969"/>
     <use xlink:href="#DejaVuSans-41" x="2399.666016"/>
     <use xlink:href="#DejaVuSans-37" x="2468.074219"/>
     <use xlink:href="#DejaVuSans-38" x="2531.697266"/>
     <use xlink:href="#DejaVuSans-30" x="2595.320312"/>
     <use xlink:href="#DejaVuSans-29" x="2658.943359"/>
    </g>
   </g>
  </g>
  <g id="axes_2">
   <g id="patch_7">
    <path d="M 90 512.64 
L 648 512.64 
L 648 335.232 
L 90 335.232 
z
" style="fill: #ffffff"/>
   </g>
   <g id="matplotlib.axis_3">
    <g id="xtick_7">
     <g id="line2d_24">
      <path d="M 115.363636 512.64 
L 115.363636 335.232 
" clip-path="url(#p5ae0feec5c)" style="fill: none; stroke: #b0b0b0; stroke-width: 0.8; stroke-linecap: square"/>
     </g>
     <g id="line2d_25">
      <g>
       <use xlink:href="#mf53ee4e5b1" x="115.363636" y="512.64" style="stroke: #000000; stroke-width: 0.8"/>
      </g>
     </g>
     <g id="text_15">
      <!-- 0.00 -->
      <g transform="translate(104.230824 527.238438) scale(0.1 -0.1)">
       <use xlink:href="#DejaVuSans-30"/>
       <use xlink:href="#DejaVuSans-2e" x="63.623047"/>
       <use xlink:href="#DejaVuSans-30" x="95.410156"/>
       <use xlink:href="#DejaVuSans-30" x="159.033203"/>
      </g>
     </g>
    </g>
    <g id="xtick_8">
     <g id="line2d_26">
      <path d="M 217.285323 512.64 
L 217.285323 335.232 
" clip-path="url(#p5ae0feec5c)" style="fill: none; stroke: #b0b0b0; stroke-width: 0.8; stroke-linecap: square"/>
     </g>
     <g id="line2d_27">
      <g>
       <use xlink:href="#mf53ee4e5b1" x="217.285323" y="512.64" style="stroke: #000000; stroke-width: 0.8"/>
      </g>
     </g>
     <g id="text_16">
      <!-- 0.01 -->
      <g transform="translate(206.15251 527.238438) scale(0.1 -0.1)">
       <use xlink:href="#DejaVuSans-30"/>
       <use xlink:href="#DejaVuSans-2e" x="63.623047"/>
       <use xlink:href="#DejaVuSans-30" x="95.410156"/>
       <use xlink:href="#DejaVuSans-31" x="159.033203"/>
      </g>
     </g>
    </g>
    <g id="xtick_9">
     <g id="line2d_28">
      <path d="M 319.207009 512.64 
L 319.207009 335.232 
" clip-path="url(#p5ae0feec5c)" style="fill: none; stroke: #b0b0b0; stroke-width: 0.8; stroke-linecap: square"/>
     </g>
     <g id="line2d_29">
      <g>
       <use xlink:href="#mf53ee4e5b1" x="319.207009" y="512.64" style="stroke: #000000; stroke-width: 0.8"/>
      </g>
     </g>
     <g id="text_17">
      <!-- 0.02 -->
      <g transform="translate(308.074197 527.238438) scale(0.1 -0.1)">
       <use xlink:href="#DejaVuSans-30"/>
       <use xlink:href="#DejaVuSans-2e" x="63.623047"/>
       <use xlink:href="#DejaVuSans-30" x="95.410156"/>
       <use xlink:href="#DejaVuSans-32" x="159.033203"/>
      </g>
     </g>
    </g>
    <g id="xtick_10">
     <g id="line2d_30">
      <path d="M 421.128696 512.64 
L 421.128696 335.232 
" clip-path="url(#p5ae0feec5c)" style="fill: none; stroke: #b0b0b0; stroke-width: 0.8; stroke-linecap: square"/>
     </g>
     <g id="line2d_31">
      <g>
       <use xlink:href="#mf53ee4e5b1" x="421.128696" y="512.64" style="stroke: #000000; stroke-width: 0.8"/>
      </g>
     </g>
     <g id="text_18">
      <!-- 0.03 -->
      <g transform="translate(409.995883 527.238438) scale(0.1 -0.1)">
       <use xlink:href="#DejaVuSans-30"/>
       <use xlink:href="#DejaVuSans-2e" x="63.623047"/>
       <use xlink:href="#DejaVuSans-30" x="95.410156"/>
       <use xlink:href="#DejaVuSans-33" x="159.033203"/>
      </g>
     </g>
    </g>
    <g id="xtick_11">
     <g id="line2d_32">
      <path d="M 523.050382 512.64 
L 523.050382 335.232 
" clip-path="url(#p5ae0feec5c)" style="fill: none; stroke: #b0b0b0; stroke-width: 0.8; stroke-linecap: square"/>
     </g>
     <g id="line2d_33">
      <g>
       <use xlink:href="#mf53ee4e5b1" x="523.050382" y="512.64" style="stroke: #000000; stroke-width: 0.8"/>
      </g>
     </g>
     <g id="text_19">
      <!-- 0.04 -->
      <g transform="translate(511.91757 527.238438) scale(0.1 -0.1)">
       <use xlink:href="#DejaVuSans-30"/>
       <use xlink:href="#DejaVuSans-2e" x="63.623047"/>
       <use xlink:href="#DejaVuSans-30" x="95.410156"/>
       <use xlink:href="#DejaVuSans-34" x="159.033203"/>
      </g>
     </g>
    </g>
    <g id="xtick_12">
     <g id="line2d_34">
      <path d="M 624.972069 512.64 
L 624.972069 335.232 
" clip-path="url(#p5ae0feec5c)" style="fill: none; stroke: #b0b0b0; stroke-width: 0.8; stroke-linecap: square"/>
     </g>
     <g id="line2d_35">
      <g>
       <use xlink:href="#mf53ee4e5b1" x="624.972069" y="512.64" style="stroke: #000000; stroke-width: 0.8"/>
      </g>
     </g>
     <g id="text_20">
      <!-- 0.05 -->
      <g transform="translate(613.839256 527.238438) scale(0.1 -0.1)">
       <use xlink:href="#DejaVuSans-30"/>
       <use xlink:href="#DejaVuSans-2e" x="63.623047"/>
       <use xlink:href="#DejaVuSans-30" x="95.410156"/>
       <use xlink:href="#DejaVuSans-35" x="159.033203"/>
      </g>
     </g>
    </g>
    <g id="text_21">
     <!-- Time [s] -->
     <g transform="translate(348.671094 540.916563) scale(0.1 -0.1)">
      <use xlink:href="#DejaVuSans-54"/>
      <use xlink:href="#DejaVuSans-69" x="57.958984"/>
      <use xlink:href="#DejaVuSans-6d" x="85.742188"/>
      <use xlink:href="#DejaVuSans-65" x="183.154297"/>
      <use xlink:href="#DejaVuSans-20" x="244.677734"/>
      <use xlink:href="#DejaVuSans-5b" x="276.464844"/>
      <use xlink:href="#DejaVuSans-73" x="315.478516"/>
      <use xlink:href="#DejaVuSans-5d" x="367.578125"/>
     </g>
    </g>
   </g>
   <g id="matplotlib.axis_4">
    <g id="ytick_6">
     <g id="line2d_36">
      <path d="M 90 504.576 
L 648 504.576 
" clip-path="url(#p5ae0feec5c)" style="fill: none; stroke: #b0b0b0; stroke-width: 0.8; stroke-linecap: square"/>
     </g>
     <g id="line2d_37">
      <g>
       <use xlink:href="#m12e32a44c8" x="90" y="504.576" style="stroke: #000000; stroke-width: 0.8"/>
      </g>
     </g>
     <g id="text_22">
      <!-- 0.0 -->
      <g transform="translate(67.096875 508.375219) scale(0.1 -0.1)">
       <use xlink:href="#DejaVuSans-30"/>
       <use xlink:href="#DejaVuSans-2e" x="63.623047"/>
       <use xlink:href="#DejaVuSans-30" x="95.410156"/>
      </g>
     </g>
    </g>
    <g id="ytick_7">
     <g id="line2d_38">
      <path d="M 90 472.32 
L 648 472.32 
" clip-path="url(#p5ae0feec5c)" style="fill: none; stroke: #b0b0b0; stroke-width: 0.8; stroke-linecap: square"/>
     </g>
     <g id="line2d_39">
      <g>
       <use xlink:href="#m12e32a44c8" x="90" y="472.32" style="stroke: #000000; stroke-width: 0.8"/>
      </g>
     </g>
     <g id="text_23">
      <!-- 0.2 -->
      <g transform="translate(67.096875 476.119219) scale(0.1 -0.1)">
       <use xlink:href="#DejaVuSans-30"/>
       <use xlink:href="#DejaVuSans-2e" x="63.623047"/>
       <use xlink:href="#DejaVuSans-32" x="95.410156"/>
      </g>
     </g>
    </g>
    <g id="ytick_8">
     <g id="line2d_40">
      <path d="M 90 440.064 
L 648 440.064 
" clip-path="url(#p5ae0feec5c)" style="fill: none; stroke: #b0b0b0; stroke-width: 0.8; stroke-linecap: square"/>
     </g>
     <g id="line2d_41">
      <g>
       <use xlink:href="#m12e32a44c8" x="90" y="440.064" style="stroke: #000000; stroke-width: 0.8"/>
      </g>
     </g>
     <g id="text_24">
      <!-- 0.4 -->
      <g transform="translate(67.096875 443.863219) scale(0.1 -0.1)">
       <use xlink:href="#DejaVuSans-30"/>
       <use xlink:href="#DejaVuSans-2e" x="63.623047"/>
       <use xlink:href="#DejaVuSans-34" x="95.410156"/>
      </g>
     </g>
    </g>
    <g id="ytick_9">
     <g id="line2d_42">
      <path d="M 90 407.808 
L 648 407.808 
" clip-path="url(#p5ae0feec5c)" style="fill: none; stroke: #b0b0b0; stroke-width: 0.8; stroke-linecap: square"/>
     </g>
     <g id="line2d_43">
      <g>
       <use xlink:href="#m12e32a44c8" x="90" y="407.808" style="stroke: #000000; stroke-width: 0.8"/>
      </g>
     </g>
     <g id="text_25">
      <!-- 0.6 -->
      <g transform="translate(67.096875 411.607219) scale(0.1 -0.1)">
       <defs>
        <path id="DejaVuSans-36" d="M 2113 2584 
Q 1688 2584 1439 2293 
Q 1191 2003 1191 1497 
Q 1191 994 1439 701 
Q 1688 409 2113 409 
Q 2538 409 2786 701 
Q 3034 994 3034 1497 
Q 3034 2003 2786 2293 
Q 2538 2584 2113 2584 
z
M 3366 4563 
L 3366 3988 
Q 3128 4100 2886 4159 
Q 2644 4219 2406 4219 
Q 1781 4219 1451 3797 
Q 1122 3375 1075 2522 
Q 1259 2794 1537 2939 
Q 1816 3084 2150 3084 
Q 2853 3084 3261 2657 
Q 3669 2231 3669 1497 
Q 3669 778 3244 343 
Q 2819 -91 2113 -91 
Q 1303 -91 875 529 
Q 447 1150 447 2328 
Q 447 3434 972 4092 
Q 1497 4750 2381 4750 
Q 2619 4750 2861 4703 
Q 3103 4656 3366 4563 
z
" transform="scale(0.015625)"/>
       </defs>
       <use xlink:href="#DejaVuSans-30"/>
       <use xlink:href="#DejaVuSans-2e" x="63.623047"/>
       <use xlink:href="#DejaVuSans-36" x="95.410156"/>
      </g>
     </g>
    </g>
    <g id="ytick_10">
     <g id="line2d_44">
      <path d="M 90 375.552 
L 648 375.552 
" clip-path="url(#p5ae0feec5c)" style="fill: none; stroke: #b0b0b0; stroke-width: 0.8; stroke-linecap: square"/>
     </g>
     <g id="line2d_45">
      <g>
       <use xlink:href="#m12e32a44c8" x="90" y="375.552" style="stroke: #000000; stroke-width: 0.8"/>
      </g>
     </g>
     <g id="text_26">
      <!-- 0.8 -->
      <g transform="translate(67.096875 379.351219) scale(0.1 -0.1)">
       <use xlink:href="#DejaVuSans-30"/>
       <use xlink:href="#DejaVuSans-2e" x="63.623047"/>
       <use xlink:href="#DejaVuSans-38" x="95.410156"/>
      </g>
     </g>
    </g>
    <g id="ytick_11">
     <g id="line2d_46">
      <path d="M 90 343.296 
L 648 343.296 
" clip-path="url(#p5ae0feec5c)" style="fill: none; stroke: #b0b0b0; stroke-width: 0.8; stroke-linecap: square"/>
     </g>
     <g id="line2d_47">
      <g>
       <use xlink:href="#m12e32a44c8" x="90" y="343.296" style="stroke: #000000; stroke-width: 0.8"/>
      </g>
     </g>
     <g id="text_27">
      <!-- 1.0 -->
      <g transform="translate(67.096875 347.095219) scale(0.1 -0.1)">
       <use xlink:href="#DejaVuSans-31"/>
       <use xlink:href="#DejaVuSans-2e" x="63.623047"/>
       <use xlink:href="#DejaVuSans-30" x="95.410156"/>
      </g>
     </g>
    </g>
    <g id="text_28">
     <!-- Amplitude -->
     <g transform="translate(61.017187 449.558656) rotate(-90) scale(0.1 -0.1)">
      <use xlink:href="#DejaVuSans-41"/>
      <use xlink:href="#DejaVuSans-6d" x="68.408203"/>
      <use xlink:href="#DejaVuSans-70" x="165.820312"/>
      <use xlink:href="#DejaVuSans-6c" x="229.296875"/>
      <use xlink:href="#DejaVuSans-69" x="257.080078"/>
      <use xlink:href="#DejaVuSans-74" x="284.863281"/>
      <use xlink:href="#DejaVuSans-75" x="324.072266"/>
      <use xlink:href="#DejaVuSans-64" x="387.451172"/>
      <use xlink:href="#DejaVuSans-65" x="450.927734"/>
     </g>
    </g>
   </g>
   <g id="line2d_48">
    <path d="M 115.363636 504.576 
L 146.78949 504.576 
L 147.001827 343.296 
L 178.42768 343.296 
L 178.640017 504.576 
L 210.278207 504.576 
L 210.490544 343.296 
L 241.916397 343.296 
L 242.128734 504.576 
L 257.841661 504.576 
L 258.053997 343.296 
L 273.554587 343.296 
L 273.766924 504.576 
L 289.479851 504.576 
L 289.692188 343.296 
L 305.405114 343.296 
L 305.617451 504.576 
L 321.118041 504.576 
L 321.330378 343.296 
L 337.043305 343.296 
L 337.255641 504.576 
L 352.968568 504.576 
L 353.180905 343.296 
L 384.606758 343.296 
L 384.819095 504.576 
L 400.532022 504.576 
L 400.744359 343.296 
L 416.244948 343.296 
L 416.457285 504.576 
L 448.095475 504.576 
L 448.307812 343.296 
L 511.371856 343.296 
L 511.584193 504.576 
L 622.636364 504.576 
L 622.636364 504.576 
" clip-path="url(#p5ae0feec5c)" style="fill: none; stroke: #1f77b4; stroke-width: 1.5; stroke-linecap: square"/>
   </g>
   <g id="patch_8">
    <path d="M 90 512.64 
L 90 335.232 
" style="fill: none; stroke: #000000; stroke-width: 0.8; stroke-linejoin: miter; stroke-linecap: square"/>
   </g>
   <g id="patch_9">
    <path d="M 648 512.64 
L 648 335.232 
" style="fill: none; stroke: #000000; stroke-width: 0.8; stroke-linejoin: miter; stroke-linecap: square"/>
   </g>
   <g id="patch_10">
    <path d="M 90 512.64 
L 648 512.64 
" style="fill: none; stroke: #000000; stroke-width: 0.8; stroke-linejoin: miter; stroke-linecap: square"/>
   </g>
   <g id="patch_11">
    <path d="M 90 335.232 
L 648 335.232 
" style="fill: none; stroke: #000000; stroke-width: 0.8; stroke-linejoin: miter; stroke-linecap: square"/>
   </g>
   <g id="text_29">
    <!-- Ideal digital OOK waveform (gold code: 0x3355A780) -->
    <g transform="translate(208.772813 329.232) scale(0.12 -0.12)">
     <use xlink:href="#DejaVuSans-49"/>
     <use xlink:href="#DejaVuSans-64" x="29.492188"/>
     <use xlink:href="#DejaVuSans-65" x="92.96875"/>
     <use xlink:href="#DejaVuSans-61" x="154.492188"/>
     <use xlink:href="#DejaVuSans-6c" x="215.771484"/>
     <use xlink:href="#DejaVuSans-20" x="243.554688"/>
     <use xlink:href="#DejaVuSans-64" x="275.341797"/>
     <use xlink:href="#DejaVuSans-69" x="338.818359"/>
     <use xlink:href="#DejaVuSans-67" x="366.601562"/>
     <use xlink:href="#DejaVuSans-69" x="430.078125"/>
     <use xlink:href="#DejaVuSans-74" x="457.861328"/>
     <use xlink:href="#DejaVuSans-61" x="497.070312"/>
     <use xlink:href="#DejaVuSans-6c" x="558.349609"/>
     <use xlink:href="#DejaVuSans-20" x="586.132812"/>
     <use xlink:href="#DejaVuSans-4f" x="617.919922"/>
     <use xlink:href="#DejaVuSans-4f" x="696.630859"/>
     <use xlink:href="#DejaVuSans-4b" x="775.341797"/>
     <use xlink:href="#DejaVuSans-20" x="840.917969"/>
     <use xlink:href="#DejaVuSans-77" x="872.705078"/>
     <use xlink:href="#DejaVuSans-61" x="954.492188"/>
     <use xlink:href="#DejaVuSans-76" x="1015.771484"/>
     <use xlink:href="#DejaVuSans-65" x="1074.951172"/>
     <use xlink:href="#DejaVuSans-66" x="1136.474609"/>
     <use xlink:href="#DejaVuSans-6f" x="1171.679688"/>
     <use xlink:href="#DejaVuSans-72" x="1232.861328"/>
     <use xlink:href="#DejaVuSans-6d" x="1272.224609"/>
     <use xlink:href="#DejaVuSans-20" x="1369.636719"/>
     <use xlink:href="#DejaVuSans-28" x="1401.423828"/>
     <use xlink:href="#DejaVuSans-67" x="1440.4375"/>
     <use xlink:href="#DejaVuSans-6f" x="1503.914062"/>
     <use xlink:href="#DejaVuSans-6c" x="1565.095703"/>
     <use xlink:href="#DejaVuSans-64" x="1592.878906"/>
     <use xlink:href="#DejaVuSans-20" x="1656.355469"/>
     <use xlink:href="#DejaVuSans-63" x="1688.142578"/>
     <use xlink:href="#DejaVuSans-6f" x="1743.123047"/>
     <use xlink:href="#DejaVuSans-64" x="1804.304688"/>
     <use xlink:href="#DejaVuSans-65" x="1867.78125"/>
     <use xlink:href="#DejaVuSans-3a" x="1929.304688"/>
     <use xlink:href="#DejaVuSans-20" x="1962.996094"/>
     <use xlink:href="#DejaVuSans-30" x="1994.783203"/>
     <use xlink:href="#DejaVuSans-78" x="2058.40625"/>
     <use xlink:href="#DejaVuSans-33" x="2117.585938"/>
     <use xlink:href="#DejaVuSans-33" x="2181.208984"/>
     <use xlink:href="#DejaVuSans-35" x="2244.832031"/>
     <use xlink:href="#DejaVuSans-35" x="2308.455078"/>
     <use xlink:href="#DejaVuSans-41" x="2372.078125"/>
     <use xlink:href="#DejaVuSans-37" x="2440.486328"/>
     <use xlink:href="#DejaVuSans-38" x="2504.109375"/>
     <use xlink:href="#DejaVuSans-30" x="2567.732422"/>
     <use xlink:href="#DejaVuSans-29" x="2631.355469"/>
    </g>
   </g>
  </g>
 </g>
 <defs>
  <clipPath id="p078129aafd">
   <rect x="90" y="69.12" width="558" height="177.408"/>
  </clipPath>
  <clipPath id="p5ae0feec5c">
   <rect x="90" y="335.232" width="558" height="177.408"/>
  </clipPath>
 </defs>
</svg>
